<?xml version="1.0" encoding="utf-8"?>
<!-- Generator: Adobe Illustrator 27.5.0, SVG Export Plug-In . SVG Version: 6.00 Build 0)  -->
<svg version="1.1" xmlns="http://www.w3.org/2000/svg" xmlns:xlink="http://www.w3.org/1999/xlink" x="0px" y="0px"
	 viewBox="0 0 500 500" style="enable-background:new 0 0 500 500;" xml:space="preserve">
<g id="Plants">
	<g id="Plants_13_">
		<g id="XMLID_605_">
			<g id="XMLID_609_">
				<path id="XMLID_610_" style="fill:#E0E0E0;" d="M424.659,264.406c0,0-1.489-16.989,2.103-33.694
					c3.592-16.705,12.31-29.555,23.052-34.574c10.743-5.02,23.497,1.819,14.27,13.248c-9.227,11.428-27.347,32.271-27.239,62.057
					L424.659,264.406z"/>
			</g>
			<g id="XMLID_607_">
				<path id="XMLID_608_" style="fill:#FFFFFF;" d="M429.969,264.224c-0.043,0.008-0.086,0.012-0.13,0.009
					c-0.349-0.009-0.624-0.299-0.613-0.648c1.005-36.483,13.155-54.75,27.195-64.039c0.288-0.195,0.682-0.112,0.875,0.178
					c0.192,0.291,0.113,0.683-0.178,0.875c-13.85,9.164-25.639,27.057-26.63,63.021C430.48,263.924,430.257,264.172,429.969,264.224
					z"/>
			</g>
		</g>
		<g id="XMLID_597_">
			<g id="XMLID_598_">
				<path id="XMLID_599_" style="fill:#EBEBEB;" d="M478.826,232.056c-0.208,2.018-1.835,3.564-3.393,4.869
					c-1.549,1.295-3.248,2.712-3.674,4.695c-0.854,4.003,3.889,7.698,2.864,11.66c-0.431,1.661-1.83,2.918-3.343,3.729
					c-1.254,0.684-2.613,1.125-3.93,1.679c-0.656,0.198-1.316,0.361-1.973,0.477c-1.945,0.335-3.989,0.904-5.381,2.408
					c-2.188,2.376-1.91,6.025-2.688,9.161c-0.934,3.756-3.164,5.957-8.277,7.743l-16.248-9.381
					c-5.661-3.883-7.15-12.585-3.134-17.751c2.41-3.101,6.925-3.493,9.201-6.594c2.042-2.783,0.859-6.8,2.114-10.015
					c1.271-3.255,4.581-4.323,7.721-4.867c3.235-0.561,6.474,0.749,9.541-0.37c3.066-1.118,5.911-2.929,9.089-3.725
					c3.091-0.773,6.592-0.495,9.161,1.538C477.919,228.455,479.013,230.225,478.826,232.056z"/>
			</g>
			<path style="fill:#FFFFFF;" d="M446.204,247.851c0.028-0.074,0.075-0.137,0.137-0.188c8.224-11.66,21.116-17.197,25.473-18.171
				c0.243-0.052,0.489,0.1,0.545,0.346c0.055,0.246-0.1,0.49-0.346,0.545c-4.13,0.923-16.102,6.04-24.159,16.738
				c11.441-3.676,19.98,1.682,20.069,1.739c0.212,0.137,0.272,0.419,0.136,0.631c-0.084,0.13-0.224,0.203-0.368,0.209
				c-0.09,0.003-0.182-0.021-0.263-0.073c-0.087-0.057-8.884-5.579-20.5-1.235c-4.225,6.083-7.145,13.848-6.841,23.526
				c0.008,0.24-0.171,0.442-0.405,0.468c-0.013,0.001-0.025,0.002-0.037,0.002c-0.251,0.008-0.463-0.19-0.47-0.442
				C438.862,262.028,441.865,254.076,446.204,247.851z"/>
		</g>
	</g>
	<g id="Plants_14_">
		<g id="XMLID_516_">
			<g id="XMLID_520_">
				<path id="XMLID_596_" style="fill:#E0E0E0;" d="M59.075,278.477c0.161-12.129-0.064-23.322-6.22-40.567
					c-5.166-14.472-18.434-29.071-27.397-28.452c-8.347,0.576-10.196,10.833-2.689,19.959c7.507,9.126,23.872,26.593,24.887,39.177
					l3.295,14.574L59.075,278.477z"/>
			</g>
			<g id="XMLID_517_">
				<path id="XMLID_518_" style="fill:#FFFFFF;" d="M55.372,275.407c-0.228-0.053-0.403-0.253-0.414-0.497
					c-1.305-28.225-17.063-51.743-30.214-58.973c-0.259-0.142-0.354-0.469-0.211-0.728c0.141-0.258,0.462-0.36,0.728-0.211
					c13.366,7.348,29.445,31.251,30.767,59.862c0.014,0.295-0.214,0.546-0.51,0.56C55.468,275.423,55.419,275.418,55.372,275.407z"
					/>
			</g>
		</g>
		<g id="XMLID_324_">
			<g id="XMLID_478_">
				<path id="XMLID_508_" style="fill:#EBEBEB;" d="M46.889,285.513c-0.512-4.257-3.524-12.649-10.679-19.486
					c-7.915-7.563-18.722-12.187-20.554-17.381c-2.2-6.239,3.318-9.571,12.438-7.62c10.961,2.344,23.315,15.075,25.354,40.7
					L46.889,285.513z"/>
			</g>
			<g id="XMLID_337_">
				<path id="XMLID_349_" style="fill:#FFFFFF;" d="M50.226,280.645c-0.199-0.048-0.36-0.208-0.4-0.423
					c-4.192-22.393-19.162-32.413-26.491-34.582c-0.283-0.084-0.445-0.382-0.362-0.666c0.084-0.285,0.371-0.448,0.666-0.362
					c8.105,2.399,22.962,12.556,27.241,35.413c0.055,0.29-0.138,0.571-0.428,0.625C50.374,280.666,50.298,280.663,50.226,280.645z"
					/>
			</g>
		</g>
	</g>
</g>
<g id="Floor">
	<ellipse id="Floor_2_" style="fill:#F5F5F5;" cx="250" cy="342.502" rx="236.185" ry="136.363"/>
</g>
<g id="Shadows">
	<path id="Shadow_6_" style="fill:#E0E0E0;" d="M427.208,393.613l-30.475-17.599c-0.358-0.207-0.358-0.541,0-0.748l43.621-25.169
		c0.358-0.206,0.938-0.206,1.295,0l30.475,17.599c0.358,0.206,0.358,0.541,0,0.748l-43.621,25.169
		C428.146,393.82,427.566,393.82,427.208,393.613z"/>
	<ellipse id="Shadow_31_" style="fill:#E0E0E0;" cx="313.953" cy="409.81" rx="59.988" ry="34.634"/>
	<path id="Shadow_30_" style="fill:#E0E0E0;" d="M377.775,390.171l-31.62-18.26c-0.371-0.214-0.371-0.562,0-0.776l50.615-29.223
		c0.371-0.214,0.973-0.214,1.344,0l31.619,18.26c0.371,0.214,0.371,0.562,0,0.776l-50.615,29.222
		C378.748,390.385,378.146,390.385,377.775,390.171z"/>
	<path id="Shadow_33_" style="fill:#E0E0E0;" d="M74.339,383.259l100.702,49.527c2.478,1.219,6.425,1.087,8.817-0.293l56.332-32.523
		c2.392-1.381,2.477-3.756,0.191-5.305l-85.149-57.711c-2.286-1.549-6.078-1.686-8.469-0.305l-72.581,41.904
		C71.791,379.933,71.861,382.04,74.339,383.259z"/>
</g>
<g id="Cloud">
	<g id="Clouds_3_">
		<path id="XMLID_270_" style="fill:#EBEBEB;" d="M87.442,48.036l-7.764,4.483c0.039-0.347,0.065-0.691,0.065-1.028v-2.249
			c0-4.003-2.81-5.625-6.277-3.624c-1.404,0.81-2.695,2.095-3.741,3.597c-0.568-5.033-4.517-6.908-9.313-4.139
			c-5.186,2.994-9.39,10.276-9.39,16.264v3.365c0,1.551,0.287,2.857,0.795,3.898l-6.449,3.723c-1.923,1.11-3.482,3.81-3.482,6.03
			c0,2.22,1.559,3.12,3.482,2.01l42.073-24.291c1.923-1.11,3.482-3.81,3.482-6.03S89.365,46.926,87.442,48.036z"/>
		<path id="XMLID_3832_" style="fill:#EBEBEB;" d="M122.758,63.078l-5.014,2.895c0.025-0.224,0.042-0.446,0.042-0.664v-1.453
			c0-2.585-1.815-3.633-4.053-2.34c-0.907,0.523-1.741,1.353-2.416,2.323c-0.367-3.25-2.917-4.461-6.014-2.673
			c-3.349,1.934-6.064,6.636-6.064,10.504v2.173c0,1.002,0.185,1.845,0.513,2.518l-4.165,2.405
			c-1.242,0.717-2.248,2.461-2.248,3.895s1.007,2.015,2.248,1.298l27.171-15.687c1.242-0.717,2.248-2.461,2.248-3.894
			C125.007,62.942,124,62.361,122.758,63.078z"/>
	</g>
</g>
<g id="Bags">
	<g id="Light_Bag">
		<path style="fill:#263238;" d="M388.39,274.672c-1.535-0.885-3.421-0.773-5.309,0.316c-4.35,2.511-7.889,9.771-7.889,16.182
			v15.115c0,0.379,0.309,0.687,0.687,0.687s0.687-0.308,0.687-0.687V291.17c0-5.974,3.231-12.699,7.202-14.992
			c1.466-0.847,2.827-0.957,3.935-0.316c1.639,0.947,2.58,3.351,2.58,6.595v15.048c0,0.379,0.308,0.687,0.687,0.687
			c0.379,0,0.687-0.308,0.687-0.687v-15.048C391.657,278.709,390.466,275.871,388.39,274.672z"/>
		<g>
			<polygon id="XMLID_272_" style="fill:#8E6CEF;" points="422.159,361.341 417.925,288.678 405.807,281.703 401.832,349.606 			"/>
			<polygon id="XMLID_271_" style="opacity:0.4;fill:#FFFFFF;" points="422.159,361.341 417.925,288.678 405.807,281.703 
				401.832,349.606 			"/>
		</g>
		<g>
			<polygon id="XMLID_352_" style="fill:#8E6CEF;" points="363.228,306.285 359.254,374.189 401.832,349.606 405.807,281.703 			"/>
			<polygon id="XMLID_269_" style="opacity:0.3;fill:#FFFFFF;" points="363.228,306.285 359.254,374.189 401.832,349.606 
				405.807,281.703 			"/>
			<polygon id="XMLID_266_" style="opacity:0.05;" points="363.228,306.285 359.254,374.189 401.832,349.606 405.807,281.703 			"/>
		</g>
		<g>
			<polygon id="XMLID_331_" style="fill:#8E6CEF;" points="363.228,306.285 375.347,313.26 379.58,385.924 359.254,374.189 			"/>
			<polygon id="XMLID_330_" style="opacity:0.55;fill:#FFFFFF;" points="363.228,306.285 375.347,313.26 379.58,385.924 
				359.254,374.189 			"/>
		</g>
		<polygon style="opacity:0.2;fill:#8E6CEF;" points="379.58,385.924 370.844,373.659 369.75,330.83 368.66,372.916 
			359.254,374.189 		"/>
		<polygon style="opacity:0.05;" points="379.58,385.924 370.844,373.659 369.75,330.83 368.66,372.916 359.254,374.189 		"/>
		<path style="fill:#8E6CEF;" d="M417.925,288.678l-42.578,24.582l4.233,72.664l42.578-24.582L417.925,288.678z M388.024,314.961
			c-0.84,0.477-1.521,0.078-1.521-0.892c0-0.97,0.681-2.149,1.521-2.634c0.84-0.485,1.521-0.086,1.521,0.892
			C389.545,313.305,388.864,314.484,388.024,314.961z M403.115,306.181c-0.84,0.477-1.521,0.078-1.521-0.892
			c0-0.97,0.681-2.149,1.521-2.634c0.84-0.485,1.521-0.086,1.521,0.892C404.636,304.525,403.955,305.704,403.115,306.181z"/>
		<path style="opacity:0.7;fill:#FFFFFF;" d="M417.925,288.678l-42.578,24.582l4.233,72.664l42.578-24.582L417.925,288.678z
			 M388.024,314.961c-0.84,0.477-1.521,0.078-1.521-0.892c0-0.97,0.681-2.149,1.521-2.634c0.84-0.485,1.521-0.086,1.521,0.892
			C389.545,313.305,388.864,314.484,388.024,314.961z M403.115,306.181c-0.84,0.477-1.521,0.078-1.521-0.892
			c0-0.97,0.681-2.149,1.521-2.634c0.84-0.485,1.521-0.086,1.521,0.892C404.636,304.525,403.955,305.704,403.115,306.181z"/>
		<path style="fill:#37474F;" d="M400.534,281.582c-1.536-0.885-3.421-0.773-5.308,0.316c-4.35,2.511-7.889,9.771-7.889,16.182
			v15.115c0,0.379,0.309,0.687,0.687,0.687c0.379,0,0.687-0.308,0.687-0.687v-15.115c0-5.974,3.231-12.699,7.202-14.992
			c1.465-0.847,2.826-0.956,3.934-0.316c1.64,0.947,2.581,3.351,2.581,6.595v15.048c0,0.379,0.309,0.687,0.687,0.687
			c0.379,0,0.687-0.308,0.687-0.687v-15.048C403.802,285.619,402.611,282.781,400.534,281.582z"/>
	</g>
	<g id="Dark_Bag">
		<path style="fill:#263238;" d="M436.489,293.04c-1.34-0.772-2.986-0.675-4.633,0.276c-3.797,2.192-6.885,8.527-6.885,14.123
			v13.192c0,0.33,0.269,0.599,0.6,0.599c0.331,0,0.6-0.269,0.6-0.599v-13.192c0-5.213,2.819-11.083,6.285-13.084
			c1.28-0.739,2.467-0.835,3.434-0.276c1.431,0.826,2.252,2.924,2.252,5.756v13.133c0,0.331,0.269,0.599,0.6,0.599
			s0.6-0.269,0.6-0.599v-13.133C439.341,296.563,438.301,294.087,436.489,293.04z"/>
		<g>
			<polygon id="XMLID_286_" style="fill:#8E6CEF;" points="465.961,368.68 462.266,305.264 451.69,299.176 448.221,358.438 			"/>
			<polygon id="XMLID_283_" style="opacity:0.2;" points="465.961,368.68 462.266,305.264 451.69,299.176 448.221,358.438 			"/>
		</g>
		<g>
			<polygon id="XMLID_282_" style="fill:#8E6CEF;" points="414.53,320.63 411.061,379.892 448.221,358.438 451.69,299.176 			"/>
			<polygon id="XMLID_278_" style="opacity:0.3;" points="414.53,320.63 411.061,379.892 448.221,358.438 451.69,299.176 			"/>
		</g>
		<g>
			<polygon id="XMLID_275_" style="fill:#8E6CEF;" points="414.53,320.63 425.106,326.717 428.801,390.134 411.061,379.892 			"/>
			<polygon id="XMLID_273_" style="opacity:0.15;" points="414.53,320.63 425.106,326.717 428.801,390.134 411.061,379.892 			"/>
		</g>
		<polygon style="opacity:0.15;" points="428.801,390.134 421.176,379.43 420.222,342.051 419.27,378.782 411.061,379.892 		"/>
		<path style="fill:#8E6CEF;" d="M462.266,305.264l-37.16,21.454l3.695,63.417l37.16-21.454L462.266,305.264z M436.17,328.202
			c-0.733,0.416-1.327,0.068-1.327-0.778c0-0.846,0.594-1.875,1.327-2.299c0.733-0.423,1.327-0.075,1.327,0.778
			S436.903,327.785,436.17,328.202z M449.34,320.539c-0.733,0.416-1.327,0.068-1.327-0.778c0-0.846,0.594-1.875,1.327-2.299
			c0.733-0.423,1.327-0.075,1.327,0.778C450.668,319.094,450.073,320.123,449.34,320.539z"/>
		<path style="fill:#37474F;" d="M447.088,299.071c-1.341-0.772-2.985-0.675-4.633,0.276c-3.797,2.192-6.885,8.527-6.885,14.123
			v13.192c0,0.331,0.269,0.599,0.6,0.599s0.6-0.269,0.6-0.599V313.47c0-5.213,2.82-11.083,6.286-13.084
			c1.278-0.739,2.466-0.835,3.433-0.276c1.431,0.827,2.252,2.925,2.252,5.756v13.133c0,0.331,0.269,0.599,0.6,0.599
			c0.331,0,0.6-0.269,0.6-0.599v-13.133C449.94,302.594,448.901,300.117,447.088,299.071z"/>
	</g>
</g>
<g id="Label">
	<g id="Label_3_">
		<g>
			<path style="fill:#263238;" d="M99.224,158.327c-0.042,0-0.084-0.003-0.127-0.006c-0.709-0.069-1.227-0.701-1.158-1.41
				c1.511-15.434,12.217-24.65,18.466-28.77c9.404-6.203,20.846-8.992,27.829-6.775c0.679,0.215,1.055,0.941,0.839,1.62
				c-0.214,0.679-0.935,1.06-1.62,0.839c-6.185-1.963-16.965,0.757-25.628,6.47c-5.864,3.867-15.91,12.499-17.318,26.868
				C100.441,157.83,99.88,158.327,99.224,158.327z"/>
		</g>
		<g id="Label_1_">
			<g id="Label_2_">
				<g>
					<path style="fill:#8E6CEF;" d="M237.261,36.426L154.45,84.241l-21.089,42.618l21.089,18.259l2.376,1.375l82.811-47.815V37.802
						L237.261,36.426z M151.557,118.982c0-3.231,2.258-7.15,5.061-8.773c0.783-0.451,1.515-0.65,2.178-0.665
						c0.316,0.579,0.508,1.311,0.508,2.209c0,3.231-2.271,7.164-5.061,8.773c-0.785,0.454-1.541,0.657-2.203,0.673
						C151.724,120.619,151.557,119.884,151.557,118.982z"/>
				</g>
				<g>
					<path style="fill:#8E6CEF;" d="M156.826,85.617l-21.089,42.618l21.089,18.259l82.811-47.815V37.802L156.826,85.617z
						 M156.618,121.902c-2.803,1.622-5.061,0.312-5.061-2.92c0-3.231,2.258-7.15,5.061-8.773c2.79-1.609,5.061-0.298,5.061,2.92
						C161.679,116.36,159.408,120.293,156.618,121.902z"/>
				</g>
				<g style="opacity:0.3;">
					<path d="M161.679,113.129c0,3.231-2.271,7.164-5.061,8.773c-2.032,1.169-3.77,0.811-4.579-0.702l0,0
						c0.662-0.013,1.412-0.219,2.204-0.673c2.79-1.609,5.061-5.541,5.061-8.773c0-0.895-0.195-1.622-0.506-2.193
						c0.753-0.013,1.415,0.234,1.908,0.714C161.316,110.884,161.679,111.844,161.679,113.129z"/>
				</g>
				<g style="opacity:0.3;">
					<polygon style="fill:#FFFFFF;" points="239.637,37.802 237.261,36.426 154.45,84.241 156.826,85.617 					"/>
				</g>
				<g style="opacity:0.15;">
					<polygon points="156.826,85.617 135.737,128.235 133.361,126.859 154.45,84.241 					"/>
				</g>
				<g style="opacity:0.3;">
					<polygon points="135.737,128.235 156.826,146.494 154.45,145.119 133.361,126.859 					"/>
				</g>
			</g>
			<g>
				<g>
					<path style="fill:#37474F;" d="M145.328,136.776c-1.159,0-2.382-0.144-3.66-0.457c-0.695-0.17-1.123-0.872-0.951-1.569
						c0.17-0.695,0.873-1.129,1.569-0.951c6.283,1.536,10.869-1.92,12.622-6.028c1.342-3.143,1.406-7.768-2.825-10.461
						c-0.605-0.386-0.782-1.187-0.398-1.792c0.384-0.604,1.189-0.784,1.792-0.398c5.243,3.338,5.697,9.27,3.819,13.669
						C155.47,133.063,151.207,136.776,145.328,136.776z"/>
				</g>
			</g>
		</g>
		<g>
			<g>
				<path style="fill:#263238;" d="M168.426,109.064c-0.145,0.083-0.271,0.076-0.377-0.028c-0.107-0.101-0.159-0.265-0.159-0.489
					v-19.74c0-0.224,0.052-0.446,0.159-0.673c0.106-0.223,0.232-0.378,0.377-0.461l6.391-3.689c0.886-0.512,1.634-0.755,2.243-0.73
					s1.095,0.233,1.459,0.624c0.363,0.392,0.625,0.922,0.784,1.595c0.159,0.673,0.238,1.386,0.238,2.138
					c0,0.592-0.043,1.132-0.13,1.619c-0.086,0.488-0.188,0.922-0.306,1.307c-0.12,0.386-0.242,0.711-0.368,0.977
					c-0.126,0.267-0.228,0.474-0.308,0.62c0.515,0.253,0.876,0.682,1.081,1.286c0.205,0.605,0.307,1.416,0.307,2.436
					c0,0.835-0.078,1.695-0.238,2.582c-0.158,0.886-0.42,1.745-0.782,2.576c-0.365,0.832-0.838,1.604-1.42,2.317
					c-0.582,0.713-1.297,1.313-2.143,1.802L168.426,109.064z M175.85,89.866c0-0.529-0.103-0.892-0.309-1.091
					c-0.205-0.197-0.507-0.181-0.903,0.048l-3.076,1.777v3.484l3.076-1.775c0.397-0.229,0.698-0.562,0.903-0.995
					C175.747,90.876,175.85,90.395,175.85,89.866z M171.563,102.517l3.275-1.89c0.397-0.229,0.714-0.591,0.953-1.085
					c0.238-0.494,0.357-1.007,0.357-1.536s-0.118-0.903-0.357-1.123c-0.238-0.219-0.556-0.215-0.953,0.014l-3.275,1.891V102.517z"/>
				<path style="fill:#263238;" d="M191.747,90.71c0.146-0.083,0.271-0.074,0.377,0.028c0.106,0.101,0.159,0.265,0.159,0.489v3.238
					c0,0.224-0.053,0.449-0.159,0.673c-0.106,0.224-0.231,0.378-0.377,0.461l-9.189,5.306c-0.145,0.085-0.271,0.076-0.377-0.026
					c-0.107-0.101-0.159-0.265-0.159-0.489V80.65c0-0.224,0.052-0.449,0.159-0.673c0.106-0.224,0.232-0.378,0.377-0.463l2.601-1.501
					c0.145-0.084,0.27-0.076,0.377,0.026c0.106,0.102,0.159,0.265,0.159,0.489v15.676L191.747,90.71z"/>
				<path style="fill:#263238;" d="M201.333,68.675c0.263-0.152,0.466-0.156,0.605-0.013c0.139,0.144,0.236,0.312,0.287,0.507
					l4.327,16.753c0.053,0.173,0.079,0.31,0.079,0.411c0,0.184-0.043,0.365-0.128,0.548c-0.086,0.183-0.189,0.309-0.308,0.377
					l-2.501,1.444c-0.265,0.153-0.454,0.174-0.566,0.067c-0.112-0.107-0.181-0.236-0.208-0.384l-0.556-2.215l-5.28,3.048
					l-0.556,2.858c-0.026,0.178-0.097,0.387-0.209,0.624c-0.112,0.238-0.301,0.433-0.565,0.587l-2.501,1.444
					c-0.12,0.068-0.222,0.062-0.309-0.023c-0.086-0.082-0.129-0.214-0.129-0.398c0-0.101,0.026-0.27,0.079-0.504l4.327-21.748
					c0.053-0.255,0.149-0.534,0.288-0.839c0.139-0.305,0.34-0.534,0.605-0.686L201.333,68.675z M198.118,83.886l3.216-1.857
					l-1.608-6.406L198.118,83.886z"/>
				<path style="fill:#263238;" d="M211.097,71.166c-0.013,0.272-0.023,0.644-0.029,1.118c-0.008,0.471-0.01,0.958-0.01,1.457
					s0.003,0.985,0.01,1.462c0.006,0.474,0.016,0.84,0.029,1.098c0.028,0.452,0.086,0.868,0.179,1.241
					c0.093,0.375,0.238,0.668,0.436,0.88c0.199,0.21,0.45,0.325,0.755,0.343c0.304,0.019,0.682-0.103,1.132-0.363
					c0.45-0.26,0.82-0.554,1.111-0.887c0.291-0.33,0.529-0.666,0.716-1.008c0.184-0.34,0.326-0.682,0.426-1.026
					c0.1-0.341,0.175-0.65,0.228-0.926c0.066-0.363,0.139-0.634,0.218-0.813c0.081-0.179,0.232-0.333,0.456-0.462l2.601-1.501
					c0.12-0.069,0.222-0.062,0.307,0.02c0.086,0.083,0.13,0.217,0.13,0.401c-0.014,1.046-0.179,2.119-0.497,3.219
					c-0.318,1.1-0.755,2.146-1.31,3.139c-0.554,0.993-1.207,1.905-1.956,2.734c-0.747,0.829-1.557,1.496-2.431,2
					c-0.953,0.551-1.803,0.821-2.55,0.815c-0.747-0.006-1.386-0.234-1.915-0.683c-0.529-0.449-0.936-1.094-1.221-1.938
					c-0.285-0.844-0.446-1.814-0.485-2.913c-0.028-0.819-0.04-1.709-0.04-2.666c0-0.955,0.013-1.88,0.04-2.772
					c0.025-1.135,0.184-2.291,0.475-3.468c0.292-1.177,0.699-2.293,1.221-3.349c0.523-1.055,1.162-2.019,1.915-2.893
					c0.755-0.872,1.608-1.585,2.56-2.134c0.873-0.504,1.683-0.774,2.431-0.808c0.748-0.034,1.401,0.122,1.956,0.475
					c0.556,0.35,0.993,0.895,1.31,1.627c0.318,0.735,0.483,1.617,0.497,2.647c0,0.184-0.044,0.365-0.13,0.547
					c-0.086,0.184-0.188,0.309-0.307,0.378l-2.601,1.501c-0.224,0.13-0.376,0.153-0.456,0.064c-0.079-0.086-0.152-0.272-0.218-0.561
					c-0.053-0.213-0.129-0.435-0.228-0.664c-0.1-0.227-0.242-0.403-0.426-0.532c-0.187-0.127-0.425-0.189-0.716-0.184
					c-0.291,0.006-0.661,0.139-1.111,0.398c-0.45,0.259-0.828,0.575-1.132,0.942c-0.305,0.37-0.556,0.775-0.755,1.216
					c-0.198,0.44-0.343,0.901-0.436,1.382C211.183,70.199,211.125,70.681,211.097,71.166z"/>
				<path style="fill:#263238;" d="M233.605,70.425c0.039,0.059,0.058,0.16,0.058,0.301c0,0.184-0.042,0.365-0.128,0.548
					c-0.086,0.183-0.189,0.309-0.307,0.377l-3.156,1.822c-0.185,0.107-0.336,0.133-0.456,0.079
					c-0.118-0.054-0.237-0.158-0.357-0.314l-3.751-5.106v7.15c0,0.224-0.054,0.45-0.16,0.673c-0.106,0.226-0.231,0.378-0.376,0.463
					l-2.601,1.501c-0.145,0.084-0.271,0.076-0.377-0.026c-0.107-0.101-0.159-0.265-0.159-0.489v-19.74
					c0-0.224,0.052-0.447,0.159-0.673c0.106-0.223,0.232-0.378,0.377-0.462l2.601-1.501c0.145-0.084,0.27-0.074,0.376,0.027
					c0.106,0.103,0.16,0.265,0.16,0.489v6.449L229,53.374c0.067-0.16,0.151-0.352,0.258-0.578c0.105-0.222,0.283-0.408,0.535-0.553
					l3.096-1.788c0.12-0.068,0.222-0.061,0.309,0.023c0.086,0.082,0.129,0.214,0.129,0.398c0,0.144-0.02,0.267-0.059,0.37
					l-4.903,12.059L233.605,70.425z"/>
			</g>
			<g>
				<path style="fill:#FAFAFA;" d="M177.085,108.084c0.132-0.077,0.247-0.068,0.344,0.024c0.097,0.092,0.145,0.241,0.145,0.445
					v2.958c0,0.204-0.048,0.408-0.145,0.612c-0.097,0.207-0.212,0.345-0.344,0.421l-5.417,3.127v3.823l5.054-2.918
					c0.132-0.077,0.247-0.068,0.344,0.024c0.096,0.093,0.145,0.241,0.145,0.447v2.956c0,0.204-0.049,0.41-0.145,0.614
					c-0.097,0.205-0.212,0.345-0.344,0.422l-5.054,2.918v6.023c0,0.207-0.049,0.411-0.145,0.615
					c-0.097,0.204-0.212,0.345-0.345,0.422l-2.374,1.37c-0.132,0.078-0.247,0.069-0.343-0.024c-0.097-0.092-0.146-0.241-0.146-0.447
					v-18.018c0-0.204,0.049-0.408,0.146-0.612c0.096-0.204,0.21-0.345,0.343-0.421L177.085,108.084z"/>
				<path style="fill:#FAFAFA;" d="M184.892,103.575c0.796-0.46,1.51-0.741,2.138-0.844c0.628-0.102,1.162-0.02,1.603,0.246
					c0.441,0.266,0.779,0.736,1.014,1.409c0.236,0.673,0.353,1.549,0.353,2.627c0,1.396-0.187,2.66-0.561,3.798
					c-0.374,1.135-0.906,2.144-1.594,3.025l2.245,5.341c0.037,0.091,0.054,0.183,0.054,0.276c0,0.168-0.039,0.334-0.117,0.5
					c-0.079,0.166-0.171,0.28-0.281,0.343l-2.463,1.424c-0.242,0.139-0.413,0.155-0.517,0.047c-0.102-0.108-0.184-0.228-0.245-0.362
					l-2.011-4.808l-1.666,0.963v5.969c0,0.205-0.049,0.41-0.146,0.614c-0.097,0.205-0.212,0.345-0.344,0.423l-2.374,1.37
					c-0.132,0.077-0.247,0.069-0.344-0.024s-0.145-0.242-0.145-0.447v-18.018c0-0.204,0.048-0.408,0.145-0.614
					c0.097-0.204,0.212-0.344,0.344-0.421L184.892,103.575z M182.846,113.208l2.046-1.182c0.507-0.292,0.927-0.684,1.259-1.173
					c0.333-0.489,0.499-1.124,0.499-1.905c0-0.781-0.166-1.225-0.499-1.331c-0.331-0.106-0.752-0.011-1.259,0.281l-2.046,1.182
					V113.208z"/>
				<path style="fill:#FAFAFA;" d="M192.574,118.665c-0.132,0.076-0.247,0.068-0.344-0.025c-0.097-0.093-0.145-0.242-0.145-0.446
					v-18.019c0-0.204,0.048-0.408,0.145-0.614c0.097-0.204,0.212-0.344,0.344-0.422l2.374-1.37c0.132-0.077,0.247-0.069,0.344,0.024
					c0.097,0.093,0.146,0.242,0.146,0.446v18.019c0,0.204-0.049,0.41-0.146,0.614c-0.097,0.205-0.212,0.345-0.344,0.422
					L192.574,118.665z"/>
				<path style="fill:#FAFAFA;" d="M203.262,92.969c0.834-0.481,1.594-0.73,2.283-0.747c0.688-0.015,1.283,0.175,1.784,0.575
					c0.5,0.398,0.893,0.994,1.177,1.788c0.283,0.794,0.445,1.748,0.48,2.862c0.013,0.383,0.019,0.738,0.019,1.063
					c0,0.325,0,0.638,0,0.932c0,0.3,0,0.605,0,0.922c0,0.315-0.006,0.663-0.019,1.042c-0.035,1.173-0.193,2.315-0.47,3.424
					c-0.278,1.109-0.661,2.15-1.152,3.119c-0.489,0.971-1.071,1.842-1.748,2.613c-0.677,0.772-1.431,1.397-2.264,1.879l-4.893,2.825
					c-0.132,0.077-0.247,0.068-0.343-0.025c-0.097-0.092-0.146-0.241-0.146-0.446V96.776c0-0.204,0.049-0.408,0.146-0.612
					c0.096-0.204,0.21-0.345,0.343-0.422L203.262,92.969z M205.636,99.268c-0.073-2.096-0.895-2.692-2.465-1.784l-1.847,1.066
					v10.599l1.938-1.119c1.522-0.88,2.312-2.404,2.374-4.579c0.011-0.396,0.016-0.766,0.016-1.111c0-0.343,0-0.678,0-1.003
					c0-0.325,0-0.655,0-0.99C205.653,100.012,205.648,99.653,205.636,99.268z"/>
				<path style="fill:#FAFAFA;" d="M217.448,84.779c0.242-0.14,0.426-0.144,0.552-0.013c0.129,0.132,0.215,0.286,0.263,0.462
					l3.949,15.292c0.048,0.159,0.073,0.282,0.073,0.376c0,0.169-0.039,0.335-0.117,0.501c-0.079,0.166-0.173,0.28-0.281,0.343
					l-2.282,1.318c-0.243,0.14-0.416,0.16-0.518,0.062c-0.102-0.098-0.166-0.215-0.19-0.35l-0.507-2.022l-4.82,2.782l-0.507,2.608
					c-0.024,0.162-0.088,0.353-0.19,0.569c-0.103,0.217-0.275,0.396-0.517,0.534l-2.282,1.318c-0.11,0.063-0.204,0.058-0.281-0.019
					c-0.079-0.074-0.118-0.197-0.118-0.364c0-0.093,0.024-0.246,0.073-0.46l3.949-19.852c0.048-0.232,0.136-0.488,0.262-0.766
					c0.127-0.277,0.311-0.486,0.553-0.625L217.448,84.779z M214.513,98.662l2.935-1.695l-1.468-5.846L214.513,98.662z"/>
				<path style="fill:#FAFAFA;" d="M229.025,96.867c0,0.204-0.049,0.41-0.145,0.614c-0.097,0.205-0.212,0.345-0.345,0.422
					l-2.374,1.371c-0.132,0.076-0.247,0.068-0.343-0.025c-0.097-0.093-0.145-0.242-0.145-0.446V92.86l-4.186-9.438
					c-0.048-0.102-0.072-0.209-0.072-0.32c0-0.167,0.038-0.333,0.118-0.501c0.077-0.164,0.171-0.28,0.28-0.343l2.482-1.431
					c0.242-0.141,0.423-0.151,0.543-0.035c0.121,0.116,0.193,0.213,0.218,0.292l2.283,5.542l2.299-8.188
					c0.024-0.108,0.097-0.287,0.218-0.544c0.121-0.255,0.302-0.454,0.543-0.592l2.482-1.434c0.108-0.062,0.202-0.055,0.281,0.019
					c0.078,0.077,0.117,0.198,0.117,0.365c0,0.111-0.024,0.246-0.072,0.403l-4.185,14.27V96.867z"/>
			</g>
		</g>
	</g>
</g>
<g id="Shopping_cart_1_">
	<g id="Shopping_cart">
		<g>
			<g>
				<g>
					<path id="XMLID_472_" style="fill:#455A64;" d="M167.413,407.351c-0.227-4.02-3.325-8.748-6.92-10.562
						c-1.887-0.952-3.527-0.901-4.635-0.066l0,0l-4.114,2.667l9.908,14.851l4.077-2.662l-0.007-0.01
						C166.868,410.862,167.528,409.402,167.413,407.351z"/>
					<path id="XMLID_468_" style="fill:#37474F;" d="M156.224,399.581c3.595,1.813,6.692,6.542,6.919,10.562
						c0.227,4.02-2.503,5.808-6.098,3.995c-3.595-1.814-6.692-6.542-6.919-10.562C149.899,399.557,152.629,397.768,156.224,399.581z
						"/>
					<path id="XMLID_463_" style="fill:#263238;" d="M154.431,405.748c-0.089-1.571,0.826-2.348,2.043-1.734
						c1.217,0.614,2.275,2.385,2.364,3.957c0.089,1.571-0.826,2.347-2.043,1.733C155.578,409.091,154.52,407.319,154.431,405.748z"
						/>
					<path id="XMLID_462_" style="fill:#8E6CEF;" d="M162.951,393.254c0,0,0.686,6.396-2.599,9.134
						c-0.619,0.516-1.287,0.887-1.672,1.246c-0.834,0.777-0.179,2.083,0.916,2.593c1.592,0.741,9.601-1.277,12.781-8.319
						L162.951,393.254z"/>
					<path id="XMLID_453_" style="opacity:0.3;fill:#FFFFFF;" d="M162.951,393.254c0,0,0.686,6.396-2.599,9.134
						c-0.619,0.516-1.287,0.887-1.672,1.246c-0.834,0.777-0.179,2.083,0.916,2.593c1.592,0.741,9.601-1.277,12.781-8.319
						L162.951,393.254z"/>
					<path id="XMLID_451_" style="fill:#8E6CEF;" d="M160.074,394.63c0,0,0.402,7.08-2.883,9.819
						c-0.619,0.516-1.287,0.887-1.672,1.246c-0.833,0.777-0.179,2.083,0.916,2.593c1.592,0.741,9.881-1.974,13.061-9.016
						L160.074,394.63z"/>
					<path id="XMLID_450_" style="opacity:0.7;fill:#FFFFFF;" d="M160.074,394.63c0,0,0.402,7.08-2.883,9.819
						c-0.619,0.516-1.287,0.887-1.672,1.246c-0.833,0.777-0.179,2.083,0.916,2.593c1.592,0.741,9.881-1.974,13.061-9.016
						L160.074,394.63z"/>
					<path id="XMLID_448_" style="fill:#263238;" d="M156.595,406.161c0.345,0.174,0.642,0.628,0.664,1.013
						c0.022,0.386-0.24,0.557-0.585,0.383c-0.345-0.174-0.642-0.628-0.664-1.013C155.988,406.159,156.25,405.987,156.595,406.161z"
						/>
				</g>
				<g>
					<path id="XMLID_443_" style="fill:#455A64;" d="M114.123,381.132c-0.227-4.02-3.325-8.748-6.92-10.562
						c-1.887-0.952-3.527-0.901-4.635-0.066l0,0l-4.114,2.667l9.908,14.851l4.077-2.662l-0.007-0.01
						C113.578,384.643,114.239,383.183,114.123,381.132z"/>
					<path id="XMLID_442_" style="fill:#37474F;" d="M102.934,373.362c3.595,1.813,6.692,6.542,6.919,10.562
						c0.227,4.02-2.503,5.808-6.098,3.995c-3.595-1.814-6.692-6.542-6.919-10.562C96.61,373.338,99.34,371.549,102.934,373.362z"/>
					<path id="XMLID_439_" style="fill:#263238;" d="M101.142,379.529c-0.089-1.571,0.826-2.348,2.043-1.734
						c1.217,0.614,2.275,2.385,2.364,3.957c0.089,1.571-0.826,2.348-2.043,1.734C102.289,382.872,101.23,381.1,101.142,379.529z"/>
					<path id="XMLID_432_" style="fill:#8E6CEF;" d="M109.661,367.035c0,0,0.686,6.396-2.599,9.134
						c-0.619,0.516-1.287,0.887-1.672,1.246c-0.834,0.777-0.179,2.083,0.916,2.593c1.592,0.741,9.601-1.277,12.781-8.319
						L109.661,367.035z"/>
					<path id="XMLID_431_" style="opacity:0.3;fill:#FFFFFF;" d="M109.661,367.035c0,0,0.686,6.396-2.599,9.134
						c-0.619,0.516-1.287,0.887-1.672,1.246c-0.834,0.777-0.179,2.083,0.916,2.593c1.592,0.741,9.601-1.277,12.781-8.319
						L109.661,367.035z"/>
					<path id="XMLID_426_" style="fill:#8E6CEF;" d="M106.784,368.411c0,0,0.402,7.08-2.883,9.819
						c-0.619,0.516-1.287,0.887-1.672,1.246c-0.834,0.777-0.179,2.083,0.916,2.593c1.592,0.741,9.881-1.974,13.061-9.016
						L106.784,368.411z"/>
					<path id="XMLID_425_" style="opacity:0.7;fill:#FFFFFF;" d="M106.784,368.411c0,0,0.402,7.08-2.883,9.819
						c-0.619,0.516-1.287,0.887-1.672,1.246c-0.834,0.777-0.179,2.083,0.916,2.593c1.592,0.741,9.881-1.974,13.061-9.016
						L106.784,368.411z"/>
					<path id="XMLID_424_" style="fill:#263238;" d="M103.306,379.942c0.345,0.174,0.642,0.628,0.664,1.013
						c0.022,0.386-0.24,0.557-0.585,0.383c-0.345-0.174-0.642-0.628-0.664-1.013C102.699,379.94,102.961,379.768,103.306,379.942z"
						/>
				</g>
				<g>
					<path id="XMLID_423_" style="fill:#455A64;" d="M173.537,346.83c-0.227-4.02-3.325-8.748-6.919-10.562
						c-1.887-0.952-3.527-0.901-4.635-0.066l0,0l-4.114,2.667l9.908,14.851l4.077-2.662l-0.007-0.01
						C172.992,350.341,173.653,348.881,173.537,346.83z"/>
					<path id="XMLID_417_" style="fill:#37474F;" d="M162.348,339.06c3.595,1.813,6.692,6.542,6.919,10.562
						c0.227,4.02-2.503,5.808-6.098,3.995c-3.595-1.813-6.692-6.542-6.919-10.562C156.023,339.035,158.753,337.247,162.348,339.06z"
						/>
					<path id="XMLID_415_" style="fill:#263238;" d="M160.556,345.227c-0.089-1.571,0.826-2.348,2.043-1.734
						c1.217,0.614,2.275,2.385,2.364,3.957c0.089,1.571-0.826,2.348-2.043,1.733C161.703,348.569,160.644,346.798,160.556,345.227z"
						/>
					<path id="XMLID_414_" style="fill:#8E6CEF;" d="M169.874,331.803c0,0-0.113,7.325-3.398,10.064
						c-0.619,0.516-1.287,0.887-1.672,1.246c-0.834,0.777-0.179,2.083,0.916,2.593c1.592,0.741,9.48-1.051,12.659-8.092
						L169.874,331.803z"/>
					<path id="XMLID_409_" style="opacity:0.3;fill:#FFFFFF;" d="M169.874,331.803c0,0-0.113,7.325-3.398,10.064
						c-0.619,0.516-1.287,0.887-1.672,1.246c-0.834,0.777-0.179,2.083,0.916,2.593c1.592,0.741,9.48-1.051,12.659-8.092
						L169.874,331.803z"/>
					<path id="XMLID_408_" style="fill:#8E6CEF;" d="M166.967,332.864c0,0-0.367,8.325-3.652,11.063
						c-0.619,0.516-1.287,0.887-1.672,1.246c-0.834,0.777-0.179,2.083,0.916,2.593c1.592,0.741,9.881-1.974,13.061-9.016
						L166.967,332.864z"/>
					<path id="XMLID_406_" style="opacity:0.7;fill:#FFFFFF;" d="M166.967,332.864c0,0-0.367,8.325-3.652,11.063
						c-0.619,0.516-1.287,0.887-1.672,1.246c-0.834,0.777-0.179,2.083,0.916,2.593c1.592,0.741,9.881-1.974,13.061-9.016
						L166.967,332.864z"/>
					<path id="XMLID_404_" style="fill:#263238;" d="M162.72,345.64c0.345,0.174,0.642,0.628,0.664,1.013
						c0.022,0.386-0.24,0.557-0.585,0.383c-0.345-0.174-0.642-0.628-0.664-1.013C162.113,345.637,162.375,345.466,162.72,345.64z"/>
				</g>
				<g>
					<path id="XMLID_403_" style="fill:#455A64;" d="M219.439,378.114c-0.227-4.02-3.325-8.748-6.919-10.562
						c-1.887-0.952-3.527-0.901-4.635-0.066l0,0l-4.114,2.667l9.908,14.851l4.077-2.662l-0.007-0.01
						C218.894,381.625,219.555,380.166,219.439,378.114z"/>
					<path id="XMLID_400_" style="fill:#37474F;" d="M208.25,370.345c3.595,1.813,6.692,6.542,6.919,10.562
						c0.227,4.02-2.503,5.808-6.098,3.995c-3.595-1.814-6.692-6.542-6.919-10.562C201.926,370.32,204.656,368.531,208.25,370.345z"
						/>
					<path id="XMLID_399_" style="fill:#263238;" d="M206.458,376.511c-0.089-1.571,0.826-2.348,2.043-1.734
						c1.217,0.614,2.275,2.385,2.364,3.957c0.089,1.571-0.826,2.348-2.043,1.733C207.605,379.854,206.546,378.083,206.458,376.511z"
						/>
					<path id="XMLID_397_" style="fill:#8E6CEF;" d="M215.776,363.088c0,0-0.113,7.325-3.398,10.064
						c-0.619,0.516-1.287,0.887-1.672,1.246c-0.834,0.777-0.179,2.083,0.916,2.593c1.592,0.741,9.48-1.051,12.659-8.092
						L215.776,363.088z"/>
					<path id="XMLID_393_" style="opacity:0.3;fill:#FFFFFF;" d="M215.776,363.088c0,0-0.113,7.325-3.398,10.064
						c-0.619,0.516-1.287,0.887-1.672,1.246c-0.834,0.777-0.179,2.083,0.916,2.593c1.592,0.741,9.48-1.051,12.659-8.092
						L215.776,363.088z"/>
					<path id="XMLID_388_" style="fill:#8E6CEF;" d="M212.869,364.149c0,0-0.367,8.325-3.652,11.063
						c-0.619,0.516-1.287,0.887-1.672,1.246c-0.834,0.777-0.179,2.083,0.916,2.593c1.592,0.741,9.881-1.974,13.061-9.016
						L212.869,364.149z"/>
					<path id="XMLID_381_" style="opacity:0.7;fill:#FFFFFF;" d="M212.869,364.149c0,0-0.367,8.325-3.652,11.063
						c-0.619,0.516-1.287,0.887-1.672,1.246c-0.834,0.777-0.179,2.083,0.916,2.593c1.592,0.741,9.881-1.974,13.061-9.016
						L212.869,364.149z"/>
					<path id="XMLID_380_" style="fill:#263238;" d="M208.622,376.924c0.345,0.174,0.642,0.628,0.664,1.013
						c0.022,0.386-0.24,0.557-0.585,0.383c-0.345-0.174-0.642-0.628-0.664-1.013C208.015,376.922,208.277,376.75,208.622,376.924z"
						/>
				</g>
				<path style="fill:#455A64;" d="M237.546,378.235c-0.024-0.065-0.03-0.133-0.065-0.195c-0.006-0.011-0.017-0.016-0.024-0.027
					c-0.039-0.065-0.1-0.114-0.151-0.171c-0.061-0.067-0.115-0.14-0.187-0.191c-0.008-0.006-0.012-0.016-0.021-0.022l-85.313-58.146
					c-0.054-0.037-0.116-0.046-0.174-0.073c-0.081-0.038-0.157-0.082-0.244-0.102c-0.082-0.019-0.162-0.015-0.245-0.017
					c-0.078-0.003-0.153-0.013-0.231,0c-0.09,0.014-0.17,0.052-0.255,0.085c-0.059,0.023-0.121,0.027-0.177,0.059l-63.863,36.871
					c-0.841,0.598-0.738,1.776,0.073,2.205L187.1,407.929c0.052,0.025,0.106,0.039,0.159,0.056c0.031,0.01,0.06,0.025,0.092,0.033
					c0.099,0.025,0.2,0.039,0.3,0.039c0,0,0.001,0,0.001,0c0,0,0.001,0,0.001,0c0.11,0,0.22-0.016,0.329-0.046
					c0.039-0.011,0.074-0.031,0.111-0.046c0.062-0.023,0.125-0.042,0.184-0.076l48.745-28.143c0.016-0.009,0.024-0.025,0.039-0.034
					c0.108-0.068,0.204-0.154,0.289-0.255c0.018-0.022,0.039-0.041,0.056-0.064c0.007-0.01,0.018-0.018,0.025-0.028
					c0.033-0.049,0.04-0.106,0.066-0.158c0.043-0.087,0.089-0.17,0.11-0.264c0.017-0.073,0.012-0.145,0.015-0.219
					c0.005-0.087,0.015-0.171,0.001-0.258C237.61,378.385,237.574,378.312,237.546,378.235z M187.605,405.391l-97.731-48.089
					l61.156-35.309l83.013,56.587L187.605,405.391z"/>
				<g>
					<path style="fill:#455A64;" d="M87.115,358.265c-0.562,0-1.071-0.381-1.213-0.95l-9.14-36.938
						c-0.165-0.67,0.243-1.348,0.914-1.514c0.667-0.164,1.347,0.243,1.514,0.914l9.14,36.938c0.165,0.67-0.243,1.348-0.914,1.514
						C87.315,358.253,87.215,358.265,87.115,358.265z"/>
				</g>
				<g>
					<path style="fill:#455A64;" d="M151.093,321.732c-0.577,0-1.096-0.401-1.222-0.988l-8.124-37.929
						c-0.145-0.675,0.286-1.34,0.961-1.484c0.674-0.141,1.34,0.286,1.484,0.961l8.124,37.929c0.145,0.675-0.286,1.34-0.961,1.484
						C151.267,321.723,151.18,321.732,151.093,321.732z"/>
				</g>
			</g>
			<g>
				<polygon style="fill:#8E6CEF;" points="77.977,320.077 187.652,374.017 236.397,345.875 142.969,282.553 				"/>
				<polygon style="opacity:0.3;fill:#FFFFFF;" points="77.977,320.077 187.652,374.017 236.397,345.875 142.969,282.553 				"/>
			</g>
			<g>
				<g>
					<path style="fill:#8E6CEF;" d="M220.798,354.189l-17.968-10.943l15.507-8.953c0.598-0.346,0.803-1.11,0.458-1.708
						c-0.347-0.599-1.108-0.803-1.708-0.458l-16.691,9.637l-17.335-10.556l16.59-9.578c0.598-0.346,0.803-1.11,0.458-1.708
						c-0.346-0.599-1.108-0.802-1.708-0.458l-17.774,10.262l-17.334-10.557l17.673-10.203c0.598-0.346,0.803-1.11,0.458-1.708
						c-0.347-0.598-1.108-0.802-1.708-0.458l-18.857,10.887l-17.335-10.556l18.756-10.828c0.598-0.346,0.803-1.11,0.458-1.708
						c-0.347-0.599-1.109-0.803-1.708-0.458l-19.94,11.512l-19.134-11.653c-0.589-0.359-1.358-0.173-1.718,0.417
						c-0.359,0.59-0.173,1.359,0.417,1.718l17.968,10.942l-18.147,10.477l-20.235-11.076c-0.604-0.331-1.365-0.11-1.697,0.496
						c-0.331,0.607-0.109,1.365,0.496,1.697l18.901,10.346l-18.655,10.77c-0.598,0.346-0.803,1.11-0.458,1.708
						c0.233,0.401,0.652,0.625,1.084,0.625c0.212,0,0.427-0.054,0.624-0.167l19.973-11.531l18.284,10.008l-17.571,10.145
						c-0.598,0.346-0.803,1.11-0.458,1.708c0.232,0.401,0.652,0.625,1.084,0.625c0.212,0,0.427-0.054,0.624-0.167l18.889-10.906
						l18.284,10.008l-16.488,9.52c-0.598,0.346-0.803,1.11-0.458,1.708c0.232,0.401,0.652,0.625,1.084,0.625
						c0.212,0,0.427-0.054,0.624-0.167l17.806-10.28l18.284,10.008l-15.405,8.894c-0.598,0.346-0.803,1.11-0.458,1.708
						c0.232,0.401,0.652,0.625,1.084,0.625c0.212,0,0.427-0.054,0.624-0.167l16.722-9.655l20.235,11.076
						c0.191,0.104,0.397,0.153,0.6,0.153c0.441,0,0.87-0.234,1.098-0.649c0.331-0.607,0.109-1.365-0.496-1.697l-18.901-10.346
						l14.764-8.524l19.135,11.653c0.203,0.124,0.428,0.183,0.649,0.183c0.422,0,0.833-0.213,1.068-0.6
						C221.575,355.316,221.388,354.547,220.798,354.189z M141.328,328.962l-18.285-10.008l18.013-10.4l17.334,10.557
						L141.328,328.962z M162.18,340.375l-18.284-10.008l16.93-9.775l17.334,10.556L162.18,340.375z M183.032,351.789l-18.285-10.008
						l15.847-9.149l17.335,10.557L183.032,351.789z"/>
					<path style="opacity:0.7;fill:#FFFFFF;" d="M220.798,354.189l-17.968-10.943l15.507-8.953c0.598-0.346,0.803-1.11,0.458-1.708
						c-0.347-0.599-1.108-0.803-1.708-0.458l-16.691,9.637l-17.335-10.556l16.59-9.578c0.598-0.346,0.803-1.11,0.458-1.708
						c-0.346-0.599-1.108-0.802-1.708-0.458l-17.774,10.262l-17.334-10.557l17.673-10.203c0.598-0.346,0.803-1.11,0.458-1.708
						c-0.347-0.598-1.108-0.802-1.708-0.458l-18.857,10.887l-17.335-10.556l18.756-10.828c0.598-0.346,0.803-1.11,0.458-1.708
						c-0.347-0.599-1.109-0.803-1.708-0.458l-19.94,11.512l-19.134-11.653c-0.589-0.359-1.358-0.173-1.718,0.417
						c-0.359,0.59-0.173,1.359,0.417,1.718l17.968,10.942l-18.147,10.477l-20.235-11.076c-0.604-0.331-1.365-0.11-1.697,0.496
						c-0.331,0.607-0.109,1.365,0.496,1.697l18.901,10.346l-18.655,10.77c-0.598,0.346-0.803,1.11-0.458,1.708
						c0.233,0.401,0.652,0.625,1.084,0.625c0.212,0,0.427-0.054,0.624-0.167l19.973-11.531l18.284,10.008l-17.571,10.145
						c-0.598,0.346-0.803,1.11-0.458,1.708c0.232,0.401,0.652,0.625,1.084,0.625c0.212,0,0.427-0.054,0.624-0.167l18.889-10.906
						l18.284,10.008l-16.488,9.52c-0.598,0.346-0.803,1.11-0.458,1.708c0.232,0.401,0.652,0.625,1.084,0.625
						c0.212,0,0.427-0.054,0.624-0.167l17.806-10.28l18.284,10.008l-15.405,8.894c-0.598,0.346-0.803,1.11-0.458,1.708
						c0.232,0.401,0.652,0.625,1.084,0.625c0.212,0,0.427-0.054,0.624-0.167l16.722-9.655l20.235,11.076
						c0.191,0.104,0.397,0.153,0.6,0.153c0.441,0,0.87-0.234,1.098-0.649c0.331-0.607,0.109-1.365-0.496-1.697l-18.901-10.346
						l14.764-8.524l19.135,11.653c0.203,0.124,0.428,0.183,0.649,0.183c0.422,0,0.833-0.213,1.068-0.6
						C221.575,355.316,221.388,354.547,220.798,354.189z M141.328,328.962l-18.285-10.008l18.013-10.4l17.334,10.557
						L141.328,328.962z M162.18,340.375l-18.284-10.008l16.93-9.775l17.334,10.556L162.18,340.375z M183.032,351.789l-18.285-10.008
						l15.847-9.149l17.335,10.557L183.032,351.789z"/>
				</g>
				<path style="fill:#8E6CEF;" d="M144.052,281.929c-0.347-0.599-1.109-0.802-1.708-0.458l-20.225,11.677l-4.79-19.362
					l20.849-12.037c0.598-0.346,0.803-1.11,0.458-1.708c-0.346-0.598-1.108-0.802-1.708-0.458l-20.224,11.676l-4.791-19.362
					l20.849-12.037c0.598-0.346,0.803-1.11,0.458-1.708c-0.347-0.599-1.109-0.803-1.708-0.458l-20.224,11.676l-4.791-19.363
					l20.847-12.037c0.598-0.346,0.803-1.11,0.458-1.708c-0.347-0.599-1.109-0.803-1.708-0.458l-64.987,37.521
					c-0.598,0.346-0.803,1.11-0.458,1.708c0.232,0.401,0.652,0.625,1.084,0.625c0.212,0,0.427-0.054,0.624-0.167l20.224-11.676
					l4.79,19.363l-20.852,12.039c-0.598,0.346-0.803,1.11-0.458,1.708c0.232,0.401,0.652,0.625,1.084,0.625
					c0.212,0,0.427-0.054,0.624-0.167l20.227-11.678l4.79,19.362l-20.851,12.039c-0.598,0.346-0.803,1.11-0.458,1.708
					c0.232,0.401,0.652,0.625,1.084,0.625c0.212,0,0.427-0.054,0.624-0.167l20.226-11.678l4.79,19.363l-20.849,12.037
					c-0.598,0.346-0.803,1.11-0.458,1.708c0.232,0.401,0.652,0.625,1.084,0.625c0.212,0,0.427-0.054,0.624-0.167l64.992-37.523
					C144.192,283.291,144.397,282.526,144.052,281.929z M84.836,242.513l19.408-11.206l4.791,19.363l-19.409,11.206L84.836,242.513z
					 M90.251,264.403l19.409-11.206l4.791,19.362l-19.409,11.206L90.251,264.403z M100.456,305.655l-4.79-19.363l19.409-11.206
					l4.79,19.362L100.456,305.655z"/>
				<g>
					<path style="fill:#8E6CEF;" d="M237.623,346.041c0.003-0.025,0.018-0.046,0.02-0.072l4.063-53.94
						c0.004-0.055-0.017-0.104-0.02-0.158c-0.005-0.089-0.009-0.175-0.033-0.261c-0.021-0.077-0.055-0.144-0.09-0.215
						c-0.035-0.073-0.069-0.142-0.118-0.208c-0.053-0.069-0.117-0.124-0.182-0.181c-0.042-0.036-0.068-0.083-0.115-0.115
						l-113.34-74.82l-1.851-7.482c-1.219-4.927-5.787-11-10.183-13.539l-2.078-1.199c-1.806-1.041-4.638-1.042-6.445,0.001
						l-9.689,5.595c-0.598,0.345-0.803,1.109-0.457,1.707c0.345,0.599,1.108,0.804,1.707,0.457l9.689-5.594
						c1.051-0.608,2.896-0.607,3.946,0l2.077,1.198c3.822,2.208,7.946,7.691,9.005,11.974l1.873,7.57
						c-0.006,0.238,0.043,0.472,0.167,0.677l16.187,65.416c0.03,0.122,0.085,0.23,0.146,0.333c0.009,0.016,0.012,0.035,0.022,0.051
						c0.004,0.006,0.009,0.011,0.014,0.017c0.023,0.034,0.058,0.059,0.084,0.091c0.067,0.079,0.135,0.156,0.219,0.216
						c0.011,0.008,0.017,0.02,0.028,0.027l93.427,63.321c0.026,0.018,0.056,0.024,0.082,0.039c0.04,0.023,0.081,0.04,0.123,0.059
						c0.108,0.047,0.217,0.078,0.329,0.093c0.025,0.003,0.046,0.018,0.072,0.02c0.031,0.003,0.062,0.004,0.092,0.004
						c0,0,0.001,0,0.001,0c0,0,0,0,0.001,0c0.001,0,0.001,0,0.001,0c0.001,0,0.002-0.001,0.003-0.001
						c0.139-0.001,0.274-0.032,0.405-0.078c0.031-0.011,0.06-0.021,0.09-0.034c0.122-0.054,0.238-0.122,0.34-0.214
						c0.012-0.011,0.02-0.024,0.031-0.035c0.059-0.058,0.117-0.117,0.165-0.187c0.016-0.024,0.018-0.052,0.032-0.076
						c0.044-0.075,0.072-0.156,0.1-0.24C237.587,346.187,237.613,346.116,237.623,346.041z M176.527,269.799l18.586,12.361
						l1.135,16.383l-17.451-11.709L176.527,269.799z M176.027,284.974l-17.305-11.611l-3.4-17.667l18.438,12.262L176.027,284.974z
						 M197.74,283.907l18.721,12.45l0,15.748l-17.585-11.799L197.74,283.907z M197.522,280.759l-1.137-16.408l20.075,13.246
						l0,15.757L197.522,280.759z M194.895,279.012l-18.807-12.508l-2.271-17.044l19.942,13.158L194.895,279.012z M173.32,264.663
						l-18.661-12.41l-3.402-17.679l19.795,13.061L173.32,264.663z M151.739,250.311l-18.505-12.307l-4.531-18.312l19.637,12.957
						L151.739,250.311z M152.402,253.755l3.396,17.647l-17.147-11.505l-4.528-18.298L152.402,253.755z M156.464,274.859l3.393,17.63
						l-15.789-10.701l-4.524-18.282L156.464,274.859z M159.387,276.82l17.08,11.46l2.265,17.002l-15.948-10.809L159.387,276.82z
						 M179.237,290.139l17.23,11.561l1.134,16.371l-16.096-10.909L179.237,290.139z M199.095,303.463l17.366,11.652l0,15.738
						l-16.23-11L199.095,303.463z M218.961,316.793l17.488,11.734l-1.137,15.103l-16.351-11.082L218.961,316.793z M218.961,313.782
						l0-15.763l18.842,12.531l-1.138,15.111L218.961,313.782z M218.961,295.016l0-15.77l20.197,13.326l-1.139,15.118
						L218.961,295.016z"/>
					<path style="opacity:0.15;" d="M237.623,346.041c0.003-0.025,0.018-0.046,0.02-0.072l4.063-53.94
						c0.004-0.055-0.017-0.104-0.02-0.158c-0.005-0.089-0.009-0.175-0.033-0.261c-0.021-0.077-0.055-0.144-0.09-0.215
						c-0.035-0.073-0.069-0.142-0.118-0.208c-0.053-0.069-0.117-0.124-0.182-0.181c-0.042-0.036-0.068-0.083-0.115-0.115
						l-113.34-74.82l-1.851-7.482c-1.219-4.927-5.787-11-10.183-13.539l-2.078-1.199c-1.806-1.041-4.638-1.042-6.445,0.001
						l-9.689,5.595c-0.598,0.345-0.803,1.109-0.457,1.707c0.345,0.599,1.108,0.804,1.707,0.457l9.689-5.594
						c1.051-0.608,2.896-0.607,3.946,0l2.077,1.198c3.822,2.208,7.946,7.691,9.005,11.974l1.873,7.57
						c-0.006,0.238,0.043,0.472,0.167,0.677l16.187,65.416c0.03,0.122,0.085,0.23,0.146,0.333c0.009,0.016,0.012,0.035,0.022,0.051
						c0.004,0.006,0.009,0.011,0.014,0.017c0.023,0.034,0.058,0.059,0.084,0.091c0.067,0.079,0.135,0.156,0.219,0.216
						c0.011,0.008,0.017,0.02,0.028,0.027l93.427,63.321c0.026,0.018,0.056,0.024,0.082,0.039c0.04,0.023,0.081,0.04,0.123,0.059
						c0.108,0.047,0.217,0.078,0.329,0.093c0.025,0.003,0.046,0.018,0.072,0.02c0.031,0.003,0.062,0.004,0.092,0.004
						c0,0,0.001,0,0.001,0c0,0,0,0,0.001,0c0.001,0,0.001,0,0.001,0c0.001,0,0.002-0.001,0.003-0.001
						c0.139-0.001,0.274-0.032,0.405-0.078c0.031-0.011,0.06-0.021,0.09-0.034c0.122-0.054,0.238-0.122,0.34-0.214
						c0.012-0.011,0.02-0.024,0.031-0.035c0.059-0.058,0.117-0.117,0.165-0.187c0.016-0.024,0.018-0.052,0.032-0.076
						c0.044-0.075,0.072-0.156,0.1-0.24C237.587,346.187,237.613,346.116,237.623,346.041z M176.527,269.799l18.586,12.361
						l1.135,16.383l-17.451-11.709L176.527,269.799z M176.027,284.974l-17.305-11.611l-3.4-17.667l18.438,12.262L176.027,284.974z
						 M197.74,283.907l18.721,12.45l0,15.748l-17.585-11.799L197.74,283.907z M197.522,280.759l-1.137-16.408l20.075,13.246
						l0,15.757L197.522,280.759z M194.895,279.012l-18.807-12.508l-2.271-17.044l19.942,13.158L194.895,279.012z M173.32,264.663
						l-18.661-12.41l-3.402-17.679l19.795,13.061L173.32,264.663z M151.739,250.311l-18.505-12.307l-4.531-18.312l19.637,12.957
						L151.739,250.311z M152.402,253.755l3.396,17.647l-17.147-11.505l-4.528-18.298L152.402,253.755z M156.464,274.859l3.393,17.63
						l-15.789-10.701l-4.524-18.282L156.464,274.859z M159.387,276.82l17.08,11.46l2.265,17.002l-15.948-10.809L159.387,276.82z
						 M179.237,290.139l17.23,11.561l1.134,16.371l-16.096-10.909L179.237,290.139z M199.095,303.463l17.366,11.652l0,15.738
						l-16.23-11L199.095,303.463z M218.961,316.793l17.488,11.734l-1.137,15.103l-16.351-11.082L218.961,316.793z M218.961,313.782
						l0-15.763l18.842,12.531l-1.138,15.111L218.961,313.782z M218.961,295.016l0-15.77l20.197,13.326l-1.139,15.118
						L218.961,295.016z"/>
				</g>
				<g>
					<path id="XMLID_375_" style="fill:#8E6CEF;" d="M59.698,227.442l-4.064-7.04l42.667-24.597l0.017,0.029
						c0.527-0.418,1.307-0.438,2.188,0.072c1.588,0.917,2.874,3.145,2.874,4.978c0.001,1.019-0.406,1.685-1.032,1.932l0.017,0.029
						L59.698,227.442z"/>
					<path id="XMLID_353_" style="opacity:0.25;" d="M59.698,227.442l-4.064-7.04l42.667-24.597l0.017,0.029
						c0.527-0.418,1.307-0.438,2.188,0.072c1.588,0.917,2.874,3.145,2.874,4.978c0.001,1.019-0.406,1.685-1.032,1.932l0.017,0.029
						L59.698,227.442z"/>
					<path style="fill:#8E6CEF;" d="M55.634,220.403c1.069-0.617,2.845,0.459,3.967,2.403c1.122,1.944,1.166,4.02,0.097,4.637
						c-1.069,0.617-2.845-0.459-3.967-2.402C54.609,223.096,54.565,221.02,55.634,220.403z"/>
				</g>
			</g>
		</g>
		<g id="_x25_">
			<g>
				<path style="fill:#263238;" d="M121.097,150.422c-6.104-3.524-11.097-3.743-15.008-1.491c-2.835,1.633-13.601,7.868-16.249,9.39
					c-7.246,4.163-10.783,16.798-10.783,32.655c0,24.421,8.124,49.761,25.791,59.961c6.385,3.686,11.507,3.983,15.451,1.722
					c2.836-1.626,13.643-7.878,16.294-9.412c7.02-4.061,10.295-16.245,10.295-31.87
					C146.889,186.955,138.765,160.623,121.097,150.422z"/>
				<path style="fill:#37474F;" d="M139.574,173.036c-4.227-9.784-10.337-17.913-18.477-22.614
					c-6.104-3.524-11.097-3.743-15.007-1.491c-2.835,1.633-13.601,7.868-16.249,9.389c-2.134,1.226-3.938,3.204-5.434,5.767
					l35.332,20.399L139.574,173.036z"/>
				<path style="fill:#455A64;" d="M104.849,250.937c-17.667-10.2-25.791-35.54-25.791-59.961s8.382-41.224,25.791-31.173
					c17.668,10.201,25.792,36.533,25.792,60.955C130.641,245.179,122.646,261.211,104.849,250.937z"/>
				<path style="fill:#263238;" d="M104.849,183.629c-5.416-3.127-8.64,0.77-8.64,17.249c0,15.486,3.354,22.981,8.64,26.034
					c5.287,3.053,8.641-0.174,8.641-16.057C113.489,194.773,110.523,186.906,104.849,183.629z"/>
			</g>
			<g>
				<polygon style="fill:#37474F;" points="185.385,181.585 168.749,171.979 152.501,181.36 114.328,324.116 131.094,333.795 
					147.342,324.415 				"/>
				<polygon style="fill:#455A64;" points="169.137,190.965 131.094,333.795 114.328,324.116 152.501,181.36 				"/>
				<polygon style="fill:#263238;" points="185.385,181.585 169.137,190.965 131.094,333.795 147.342,324.415 				"/>
			</g>
			<g>
				<path style="fill:#263238;" d="M196.865,254.563c-6.104-3.524-11.097-3.743-15.008-1.491c-2.835,1.633-13.601,7.868-16.249,9.39
					c-7.246,4.163-10.783,16.798-10.783,32.655c0,24.421,8.124,49.761,25.791,59.961c6.385,3.686,11.507,3.983,15.451,1.722
					c2.836-1.626,13.643-7.878,16.294-9.412c7.02-4.061,10.295-16.245,10.295-31.87
					C222.656,291.096,214.532,264.764,196.865,254.563z"/>
				<path style="fill:#37474F;" d="M215.342,277.177c-4.227-9.784-10.337-17.913-18.477-22.614
					c-6.104-3.524-11.097-3.743-15.008-1.491c-2.835,1.633-13.601,7.868-16.249,9.389c-2.134,1.226-3.938,3.204-5.434,5.767
					l35.332,20.399L215.342,277.177z"/>
				<path style="fill:#455A64;" d="M180.616,355.078c-17.667-10.2-25.791-35.54-25.791-59.961s8.382-41.224,25.791-31.173
					c17.668,10.201,25.792,36.533,25.792,60.955C206.408,349.32,198.413,365.352,180.616,355.078z"/>
				<path style="fill:#263238;" d="M180.616,287.77c-5.416-3.127-8.64,0.77-8.64,17.249c0,15.486,3.354,22.981,8.64,26.034
					c5.287,3.053,8.641-0.174,8.641-16.057C189.257,298.914,186.291,291.046,180.616,287.77z"/>
			</g>
		</g>
		<g>
			<g>
				<path style="fill:#8E6CEF;" d="M192.959,320.167c0.012-0.165-0.009-0.33-0.06-0.484c-0.024-0.073-0.074-0.13-0.11-0.197
					c-0.041-0.075-0.07-0.156-0.126-0.221c-0.106-0.124-0.236-0.226-0.383-0.301c-0.001-0.001-0.001-0.001-0.002-0.002l-0.604-0.305
					l-0.001-0.001l-57.622-29.11l-71.239-35.991l-1.85-7.448c-1.22-4.92-5.78-10.99-10.18-13.53l-2.08-1.2
					c-0.36-0.21-0.44-0.38-0.45-0.42c0.01-0.03,0.09-0.21,0.45-0.41l9.075-5.245h0.01c0.33-0.19,0.32-0.83-0.03-1.43
					c-0.34-0.6-0.89-0.93-1.22-0.74l-9.085,5.245c-1.08,0.62-1.7,1.56-1.7,2.58c0,1.02,0.62,1.96,1.7,2.58l2.08,1.21
					c3.82,2.2,7.95,7.68,9.01,11.96l1.95,7.88c0.004,0.034,0.018,0.067,0.026,0.103c0.002,0.007-0.001,0.013,0.001,0.02
					l15.494,62.635l0.75,3.033c0,0,0,0,0,0.001l0,0.001c0.005,0.02,0.018,0.035,0.024,0.054c0.017,0.056,0.045,0.105,0.069,0.158
					c0.037,0.08,0.073,0.159,0.125,0.228c0.014,0.019,0.023,0.039,0.038,0.057c0.027,0.032,0.063,0.055,0.093,0.084
					c0.071,0.07,0.148,0.129,0.233,0.18c0.03,0.018,0.049,0.046,0.08,0.062L187.1,375.14c0.136,0.066,0.277,0.098,0.419,0.113
					c0.014,0.002,0.025,0.01,0.039,0.011c0.031,0.003,0.062,0.004,0.092,0.004c0,0,0.001,0,0.001,0c0,0,0,0,0.001,0
					c0,0,0.001,0,0.001,0c0.002,0,0.003-0.001,0.005-0.001c0.038,0,0.074-0.012,0.111-0.015c0.074-0.006,0.148-0.011,0.218-0.03
					c0.012-0.003,0.023-0.011,0.036-0.014c0.016-0.005,0.031-0.013,0.047-0.019c0.03-0.011,0.058-0.022,0.087-0.035
					c0.038-0.017,0.079-0.026,0.116-0.047l-0.002-0.007c0.06-0.034,0.112-0.079,0.165-0.123c0.029-0.024,0.06-0.045,0.087-0.071
					c0.098-0.096,0.186-0.205,0.25-0.335c0.001-0.003,0.001-0.007,0.003-0.01c0.066-0.137,0.109-0.288,0.122-0.448l0.001-0.017
					c0-0.003,0-0.006,0.001-0.009l1.353-17.966c0-0.004,0.001-0.008,0.001-0.011l1.353-17.965c0-0.003,0.001-0.006,0.001-0.009
					l1.352-17.963C192.96,320.17,192.959,320.169,192.959,320.167z M164.466,307.713l0,15.967l-22.196-11.125l-1.153-16.639
					L164.466,307.713z M141.03,330.808l-20.739-10.303l-2.309-17.327l21.894,10.974L141.03,330.808z M138.521,294.605l1.154,16.649
					l-22.093-11.073l-2.308-17.321L138.521,294.605z M117.589,319.163L96.96,308.915l-3.466-18.01l21.785,10.919L117.589,319.163z
					 M112.57,281.494l2.31,17.333L92.899,287.81l-3.465-18.005L112.57,281.494z M63.603,256.755l23.01,11.625l3.468,18.017
					l-21.855-10.954L63.603,256.755z M69.015,278.635l21.661,10.857l3.469,18.024l-20.506-10.187L69.015,278.635z M79.052,319.212
					l-4.626-18.702l20.313,10.091l3.47,18.033L79.052,319.212z M101.022,330.017L97.554,312l20.433,10.151l2.312,17.347
					L101.022,330.017z M122.998,340.826l-2.31-17.333l20.541,10.204l1.154,16.663L122.998,340.826z M142.472,315.453l21.995,11.024
					l0,15.974l-20.842-10.354L142.472,315.453z M144.979,351.637l-1.153-16.65l20.642,10.254l0,15.98L144.979,351.637z
					 M186.545,372.08l-19.577-9.629l0-15.967l20.73,10.298L186.545,372.08z M187.899,354.092l-20.932-10.399l0-15.963l22.084,11.069
					L187.899,354.092z M189.253,336.104l-22.287-11.17l0-15.957l23.438,11.841L189.253,336.104z"/>
				<path style="opacity:0.5;fill:#FFFFFF;" d="M192.959,320.167c0.012-0.165-0.009-0.33-0.06-0.484
					c-0.024-0.073-0.074-0.13-0.11-0.197c-0.041-0.075-0.07-0.156-0.126-0.221c-0.106-0.124-0.236-0.226-0.383-0.301
					c-0.001-0.001-0.001-0.001-0.002-0.002l-0.604-0.305l-0.001-0.001l-57.622-29.11l-71.239-35.991l-1.85-7.448
					c-1.22-4.92-5.78-10.99-10.18-13.53l-2.08-1.2c-0.36-0.21-0.44-0.38-0.45-0.42c0.01-0.03,0.09-0.21,0.45-0.41l9.075-5.245h0.01
					c0.33-0.19,0.32-0.83-0.03-1.43c-0.34-0.6-0.89-0.93-1.22-0.74l-9.085,5.245c-1.08,0.62-1.7,1.56-1.7,2.58
					c0,1.02,0.62,1.96,1.7,2.58l2.08,1.21c3.82,2.2,7.95,7.68,9.01,11.96l1.95,7.88c0.004,0.034,0.018,0.067,0.026,0.103
					c0.002,0.007-0.001,0.013,0.001,0.02l15.494,62.635l0.75,3.033c0,0,0,0,0,0.001l0,0.001c0.005,0.02,0.018,0.035,0.024,0.054
					c0.017,0.056,0.045,0.105,0.069,0.158c0.037,0.08,0.073,0.159,0.125,0.228c0.014,0.019,0.023,0.039,0.038,0.057
					c0.027,0.032,0.063,0.055,0.093,0.084c0.071,0.07,0.148,0.129,0.233,0.18c0.03,0.018,0.049,0.046,0.08,0.062L187.1,375.14
					c0.136,0.066,0.277,0.098,0.419,0.113c0.014,0.002,0.025,0.01,0.039,0.011c0.031,0.003,0.062,0.004,0.092,0.004
					c0,0,0.001,0,0.001,0c0,0,0,0,0.001,0c0,0,0.001,0,0.001,0c0.002,0,0.003-0.001,0.005-0.001c0.038,0,0.074-0.012,0.111-0.015
					c0.074-0.006,0.148-0.011,0.218-0.03c0.012-0.003,0.023-0.011,0.036-0.014c0.016-0.005,0.031-0.013,0.047-0.019
					c0.03-0.011,0.058-0.022,0.087-0.035c0.038-0.017,0.079-0.026,0.116-0.047l-0.002-0.007c0.06-0.034,0.112-0.079,0.165-0.123
					c0.029-0.024,0.06-0.045,0.087-0.071c0.098-0.096,0.186-0.205,0.25-0.335c0.001-0.003,0.001-0.007,0.003-0.01
					c0.066-0.137,0.109-0.288,0.122-0.448l0.001-0.017c0-0.003,0-0.006,0.001-0.009l1.353-17.966c0-0.004,0.001-0.008,0.001-0.011
					l1.353-17.965c0-0.003,0.001-0.006,0.001-0.009l1.352-17.963C192.96,320.17,192.959,320.169,192.959,320.167z M164.466,307.713
					l0,15.967l-22.196-11.125l-1.153-16.639L164.466,307.713z M141.03,330.808l-20.739-10.303l-2.309-17.327l21.894,10.974
					L141.03,330.808z M138.521,294.605l1.154,16.649l-22.093-11.073l-2.308-17.321L138.521,294.605z M117.589,319.163L96.96,308.915
					l-3.466-18.01l21.785,10.919L117.589,319.163z M112.57,281.494l2.31,17.333L92.899,287.81l-3.465-18.005L112.57,281.494z
					 M63.603,256.755l23.01,11.625l3.468,18.017l-21.855-10.954L63.603,256.755z M69.015,278.635l21.661,10.857l3.469,18.024
					l-20.506-10.187L69.015,278.635z M79.052,319.212l-4.626-18.702l20.313,10.091l3.47,18.033L79.052,319.212z M101.022,330.017
					L97.554,312l20.433,10.151l2.312,17.347L101.022,330.017z M122.998,340.826l-2.31-17.333l20.541,10.204l1.154,16.663
					L122.998,340.826z M142.472,315.453l21.995,11.024l0,15.974l-20.842-10.354L142.472,315.453z M144.979,351.637l-1.153-16.65
					l20.642,10.254l0,15.98L144.979,351.637z M186.545,372.08l-19.577-9.629l0-15.967l20.73,10.298L186.545,372.08z
					 M187.899,354.092l-20.932-10.399l0-15.963l22.084,11.069L187.899,354.092z M189.253,336.104l-22.287-11.17l0-15.957
					l23.438,11.841L189.253,336.104z"/>
			</g>
			<g>
				<path style="fill:#8E6CEF;" d="M241.69,291.912c-0.002-0.086-0.012-0.169-0.032-0.254c-0.019-0.082-0.044-0.157-0.078-0.232
					c-0.017-0.038-0.018-0.079-0.039-0.116c-0.02-0.035-0.054-0.055-0.077-0.087c-0.049-0.069-0.103-0.129-0.165-0.187
					c-0.059-0.055-0.118-0.104-0.186-0.146c-0.066-0.041-0.133-0.072-0.206-0.101c-0.082-0.032-0.161-0.056-0.248-0.07
					c-0.038-0.006-0.069-0.027-0.107-0.03c-0.044-0.004-0.082,0.013-0.124,0.014c-0.077,0.002-0.149,0.009-0.225,0.025
					c-0.106,0.021-0.202,0.053-0.295,0.099c-0.024,0.012-0.051,0.011-0.074,0.025l-48.745,28.143
					c-0.029,0.017-0.045,0.045-0.071,0.063c-0.08,0.055-0.149,0.117-0.214,0.189c-0.049,0.054-0.093,0.108-0.132,0.169
					c-0.043,0.069-0.076,0.139-0.105,0.216c-0.031,0.081-0.054,0.159-0.068,0.245c-0.006,0.038-0.027,0.069-0.03,0.108l-4.062,53.94
					c-0.003,0.04,0.014,0.076,0.014,0.116c0.001,0.087,0.012,0.169,0.032,0.255c0.019,0.082,0.044,0.157,0.078,0.232
					c0.017,0.038,0.018,0.079,0.039,0.116c0.029,0.05,0.069,0.089,0.103,0.133c0.021,0.027,0.039,0.055,0.062,0.08
					c0.097,0.107,0.208,0.196,0.331,0.261c0.02,0.01,0.041,0.016,0.061,0.025c0.12,0.056,0.246,0.09,0.377,0.106
					c0.019,0.002,0.035,0.014,0.055,0.016c0.032,0.003,0.064,0.004,0.095,0.004c0.137,0,0.274-0.031,0.408-0.078
					c0.037-0.013,0.071-0.027,0.107-0.044c0.036-0.017,0.074-0.025,0.11-0.045l48.745-28.143c0.039-0.023,0.062-0.06,0.098-0.087
					c0.071-0.051,0.134-0.105,0.193-0.171c0.051-0.057,0.094-0.114,0.133-0.178c0.042-0.067,0.075-0.136,0.103-0.211
					c0.029-0.078,0.05-0.153,0.064-0.235c0.006-0.037,0.026-0.069,0.029-0.108l4.063-53.94
					C241.708,291.988,241.691,291.952,241.69,291.912z M209.159,311.449l13.628-7.868l-1.127,14.961l-13.628,7.868L209.159,311.449z
					 M192.91,320.83l13.629-7.868l-1.127,14.961l-13.629,7.868L192.91,320.83z M202.704,363.884l-13.628,7.868l1.126-14.961
					l13.628-7.868L202.704,363.884z M204.058,345.903l-13.628,7.868l1.127-14.962l13.628-7.868L204.058,345.903z M218.952,354.503
					l-13.628,7.868l1.127-14.962l13.628-7.868L218.952,354.503z M220.306,336.522l-13.628,7.868l1.127-14.962l13.628-7.868
					L220.306,336.522z M235.2,345.122l-13.628,7.868l1.127-14.962l13.628-7.868L235.2,345.122z M236.554,327.142l-13.628,7.868
					l1.127-14.962l13.628-7.868L236.554,327.142z M237.908,309.161l-13.628,7.868l1.127-14.961l13.628-7.868L237.908,309.161z"/>
				<path style="opacity:0.7;fill:#FFFFFF;" d="M241.69,291.912c-0.002-0.086-0.012-0.169-0.032-0.254
					c-0.019-0.082-0.044-0.157-0.078-0.232c-0.017-0.038-0.018-0.079-0.039-0.116c-0.02-0.035-0.054-0.055-0.077-0.087
					c-0.049-0.069-0.103-0.129-0.165-0.187c-0.059-0.055-0.118-0.104-0.186-0.146c-0.066-0.041-0.133-0.072-0.206-0.101
					c-0.082-0.032-0.161-0.056-0.248-0.07c-0.038-0.006-0.069-0.027-0.107-0.03c-0.044-0.004-0.082,0.013-0.124,0.014
					c-0.077,0.002-0.149,0.009-0.225,0.025c-0.106,0.021-0.202,0.053-0.295,0.099c-0.024,0.012-0.051,0.011-0.074,0.025
					l-48.745,28.143c-0.029,0.017-0.045,0.045-0.071,0.063c-0.08,0.055-0.149,0.117-0.214,0.189
					c-0.049,0.054-0.093,0.108-0.132,0.169c-0.043,0.069-0.076,0.139-0.105,0.216c-0.031,0.081-0.054,0.159-0.068,0.245
					c-0.006,0.038-0.027,0.069-0.03,0.108l-4.062,53.94c-0.003,0.04,0.014,0.076,0.014,0.116c0.001,0.087,0.012,0.169,0.032,0.255
					c0.019,0.082,0.044,0.157,0.078,0.232c0.017,0.038,0.018,0.079,0.039,0.116c0.029,0.05,0.069,0.089,0.103,0.133
					c0.021,0.027,0.039,0.055,0.062,0.08c0.097,0.107,0.208,0.196,0.331,0.261c0.02,0.01,0.041,0.016,0.061,0.025
					c0.12,0.056,0.246,0.09,0.377,0.106c0.019,0.002,0.035,0.014,0.055,0.016c0.032,0.003,0.064,0.004,0.095,0.004
					c0.137,0,0.274-0.031,0.408-0.078c0.037-0.013,0.071-0.027,0.107-0.044c0.036-0.017,0.074-0.025,0.11-0.045l48.745-28.143
					c0.039-0.023,0.062-0.06,0.098-0.087c0.071-0.051,0.134-0.105,0.193-0.171c0.051-0.057,0.094-0.114,0.133-0.178
					c0.042-0.067,0.075-0.136,0.103-0.211c0.029-0.078,0.05-0.153,0.064-0.235c0.006-0.037,0.026-0.069,0.029-0.108l4.063-53.94
					C241.708,291.988,241.691,291.952,241.69,291.912z M209.159,311.449l13.628-7.868l-1.127,14.961l-13.628,7.868L209.159,311.449z
					 M192.91,320.83l13.629-7.868l-1.127,14.961l-13.629,7.868L192.91,320.83z M202.704,363.884l-13.628,7.868l1.126-14.961
					l13.628-7.868L202.704,363.884z M204.058,345.903l-13.628,7.868l1.127-14.962l13.628-7.868L204.058,345.903z M218.952,354.503
					l-13.628,7.868l1.127-14.962l13.628-7.868L218.952,354.503z M220.306,336.522l-13.628,7.868l1.127-14.962l13.628-7.868
					L220.306,336.522z M235.2,345.122l-13.628,7.868l1.127-14.962l13.628-7.868L235.2,345.122z M236.554,327.142l-13.628,7.868
					l1.127-14.962l13.628-7.868L236.554,327.142z M237.908,309.161l-13.628,7.868l1.127-14.961l13.628-7.868L237.908,309.161z"/>
			</g>
		</g>
	</g>
</g>
<g id="Speech_Bubble">
	<g id="Speech_Bubble_15_">
		<g id="Speech_Bubble_4_">
			<g id="XMLID_2821_">
				<path id="XMLID_2840_" style="fill:#8E6CEF;" d="M315.366,94.302l-3.259-6.128l2.623-7.57V75.97l-8.025,4.634v4.633l3.45,5.976
					c0.059,0.101,0.142,0.167,0.235,0.208l-0.002,0.003L315.366,94.302z"/>
				<path id="XMLID_2839_" style="opacity:0.3;" d="M315.366,94.302l-3.259-6.128l2.623-7.57V75.97l-8.025,4.634v4.633l3.45,5.976
					c0.059,0.101,0.142,0.167,0.235,0.208l-0.002,0.003L315.366,94.302z"/>
				<path id="XMLID_2834_" style="fill:#8E6CEF;" d="M330.356,43.318c0-1.535-1.077-3.4-2.406-4.168l-1.959-1.131
					c-1.329-0.767-3.483-0.767-4.812,0l-28.125,16.189c-1.329,0.767-2.406,2.633-2.406,4.168V89.7c0,1.535,1.078,3.4,2.406,4.168
					l1.959,1.131c1.329,0.767,3.484,0.767,4.812,0l11.918-6.842l3.443,5.964c0.22,0.381,0.787,0.327,0.931-0.089l3.639-10.505
					l8.194-4.718c1.329-0.767,2.406-2.633,2.406-4.167L330.356,43.318z"/>
				<path id="XMLID_304_" style="fill:#FAFAFA;" d="M305.323,69.734c-0.008-1.807,0.426-3.705,1.142-5.383l-0.003-0.004l0.015-0.036
					c0.838-1.946,2.068-3.588,3.436-4.392c2.347-1.385,4.305,1.425,4.614,4.737c0.279-3.657,2.201-8.748,4.549-10.123
					c1.368-0.804,2.605-0.612,3.456,0.341l0.016,0.018l-0.003,0.007c0.728,0.829,1.176,2.209,1.184,4.016
					c0.025,5.601-3.344,10.682-6.161,16.022l-2.97,5.609l-3.004-2.098C308.743,76.44,305.348,75.334,305.323,69.734z"/>
				<path id="XMLID_2823_" style="opacity:0.3;" d="M290.648,89.7c0,1.535,1.077,3.4,2.406,4.168l1.959,1.131
					c1.201,0.693,3.07,0.754,4.401,0.194c-1.133,0.428-1.995-0.211-1.995-1.583l0-31.324c0-0.767,0.27-1.617,0.705-2.371
					l-6.771-3.909c-0.435,0.754-0.705,1.604-0.705,2.371V89.7z"/>
				<path id="XMLID_2822_" style="opacity:0.3;fill:#FFFFFF;" d="M330.277,42.634c-0.281-1.021-1.212-1.347-2.323-0.707
					l-28.13,16.193c-0.662,0.382-1.268,1.033-1.695,1.796l-6.769-3.906c0.438-0.763,1.033-1.415,1.695-1.796l28.119-16.194
					c1.336-0.763,3.491-0.763,4.816,0l1.964,1.134C329.087,39.806,330.041,41.265,330.277,42.634z"/>
			</g>
		</g>
	</g>
</g>
<g id="Character">
	<g id="Character_1_">
		<g id="Arm">
			<path style="fill:#F28F8F;" d="M282.813,245.13c-0.947-0.689-2.149-0.915-3.315-1.016c-0.328-0.029-0.668-0.048-0.979,0.06
				c-0.311,0.108-0.591,0.374-0.616,0.702c-1.284-1.208-3.531-1.181-4.785,0.059l1.532,2.64c1.41,1.146,3.104,1.94,4.886,2.29
				c0.855,0.168,1.752,0.234,2.589-0.01c0.837-0.244,1.606-0.841,1.881-1.668C284.375,247.077,283.759,245.819,282.813,245.13z"/>
			<path style="fill:#FFA8A7;" d="M299.655,165.521c-6.572,2.193-10.966,2.085-18.422,10.761
				c-6.967,8.108-13.349,15.932-18.391,22.332c-3.592,4.56-4.151,6.885-0.787,12.673c2.805,4.826,16.559,23.108,17.816,24.373
				c0.646,0.65-0.01,3.669-0.13,5.537c-0.114,1.771,0.644,3.608,0.452,5.076c-0.374,2.877-1.262,2.966-3.235,1.193
				c-2.385-2.144-4.635-4.07-5.342-1.372c-0.15,0.571,4.361,5.52,5.281,6.573c1.602,1.834,5.315,1.57,9.069,0
				c3.754-1.57,6.905-4.195,7.389-7.983c0.484-3.788,1.152-8.324-1.535-12.452c-3.176-4.88-13.205-26.18-13.205-26.18l18.441-17.657
				L299.655,165.521z"/>
			<path style="fill:#37474F;" d="M294.258,165.521c-4.741,1.243-4.951,0.982-13.42,10.388c-8.47,9.406-15.652,19.75-15.652,19.75
				s4.456-0.255,9.546,3.199c5.09,3.454,5.3,5.838,5.3,5.838l19.241-16.563L294.258,165.521z"/>
		</g>
		<g id="Bottom_10_">
			<g>
				<g id="XMLID_2981_">
					<path id="XMLID_2983_" style="fill:#FFA8A7;" d="M290.592,380.093c-0.271-3.988-2.687-44.198-2.687-44.198l19.724,14.479
						c-3.138,23.003-4.384,29.162-4.495,32.999l0,0c0.03,0.09,0.107,0.417,0.096,0.984c-0.064,4.556-5.363,6.958-9.509,9.952
						c-1.638,1.182-6.401,4.676-11.2,6.965c-3.004,1.433-9.076,1.502-9.809-0.38c5.045-3.675,10.882-7.686,14.908-11.901
						C289.543,386.979,290.918,384.879,290.592,380.093z"/>
				</g>
				<g>
					<path style="fill:#263238;" d="M264.126,405.707c-0.257-0.003-0.672,2.752,0.71,3.939c1.596,1.37,6.298,3.642,12.548,2.92
						c6.251-0.722,9.65-2.569,12.169-4.582c2.519-2.012,6.049-4.851,8.879-5.428c2.629-0.537,5.489-1.665,6.337-2.447
						c0.847-0.782,0.767-4.298,0.767-4.298L264.126,405.707z"/>
					<path id="XMLID_2925_" style="fill:#37474F;" d="M303.187,382.259c0,0,0.783,0.017,0.936,0.832
						c0.182,0.97,0.361,3.789,0.758,5.383c0.55,2.215,0.888,6.748,0.526,8.545c-0.362,1.797-4.651,3.004-7.394,3.99
						c-2.802,1.007-6.052,3.11-8.909,5.359c-2.957,2.327-9.153,4.716-13.222,4.645c-4.814-0.085-10.218-1.661-11.438-3.851
						c-1.509-2.709-0.288-4.256,6.882-7.406c1.358-0.596,6.132-3.285,7.759-4.261c4.404-2.64,8.778-6.333,10.84-11.065
						c0.241-0.553,0.494-1.166,1.041-1.443c0.419-0.212,0.922-0.176,1.389-0.107c1.187,0.175,2.346,0.531,3.425,1.046
						c0.953,0.455,2.307,0.988,2.274,2.184c-0.012,0.416-0.139,0.821-0.281,1.213c-0.088,0.243-0.158,0.567,0.059,0.714
						c0.206,0.138,0.482-0.014,0.67-0.175c0.754-0.645,1.31-1.476,1.947-2.231c0.341-0.405,0.713-0.792,1.141-1.111
						c0.389-0.289,0.884-0.43,1.23-0.759C303.259,383.344,303.161,382.82,303.187,382.259z"/>
					<path style="fill:#455A64;" d="M289.103,406.368c1.255-0.988,2.587-1.941,3.923-2.793l0-0.006c0,0-8.445,4.887-11.814,2.593
						c-2.17-1.478-1.113-3.235-1.054-3.799c0.059-0.564-5.307-3.04-7.427-3.309v0c-0.594,0.313-1.093,0.564-1.405,0.701
						c-7.171,3.15-8.392,4.698-6.882,7.406c1.22,2.189,5.129,3.928,11.35,3.994C279.863,411.198,286.146,408.695,289.103,406.368z"
						/>
					<path style="fill:#263238;" d="M280.762,400.723c-4.457,1.684-2.571,2.512-1.33,2.698c1.241,0.186,8.756-3.99,13.348-7.456
						c4.79-3.617,7.828-7.593,9.607-8.92c0.663-0.495,1.378-1.104,2.014-1.674c-0.107-0.954-0.193-1.822-0.278-2.278
						c-0.153-0.815-0.936-0.832-0.936-0.832c-0.026,0.561,0.072,1.085-0.366,1.501c-0.346,0.329-0.841,0.47-1.23,0.759
						c-0.429,0.318-0.8,0.706-1.141,1.111c-0.637,0.756-1.193,1.586-1.947,2.231C294.576,392.616,285.218,399.038,280.762,400.723z"
						/>
					<g>
						<g>
							<path style="fill:#F0F0F0;" d="M279.754,402.788c0.098,0.001,0.197-0.029,0.279-0.094c0.19-0.147,0.221-0.417,0.068-0.602
								c-1.238-1.509-4.83-3.527-8.099-3.212c-0.242,0.022-0.419,0.233-0.394,0.467c0.023,0.235,0.214,0.4,0.479,0.385
								c3.053-0.287,6.348,1.699,7.328,2.895C279.5,402.731,279.626,402.786,279.754,402.788z"/>
						</g>
						<g>
							<path style="fill:#F0F0F0;" d="M283.649,400.505c0.098,0.001,0.196-0.029,0.279-0.094c0.189-0.147,0.219-0.417,0.068-0.602
								c-1.237-1.508-4.827-3.524-8.099-3.211c-0.242,0.022-0.419,0.233-0.395,0.467c0.023,0.235,0.232,0.407,0.48,0.385
								c3.054-0.283,6.348,1.698,7.328,2.894C283.396,400.449,283.522,400.504,283.649,400.505z"/>
						</g>
						<g>
							<path style="fill:#F0F0F0;" d="M287.545,398.346c0.098,0.001,0.196-0.029,0.279-0.094c0.19-0.147,0.219-0.417,0.068-0.602
								c-1.238-1.509-4.829-3.53-8.099-3.211c-0.242,0.022-0.419,0.233-0.394,0.467c0.023,0.235,0.228,0.407,0.48,0.385
								c3.054-0.287,6.348,1.698,7.328,2.894C287.291,398.289,287.417,398.344,287.545,398.346z"/>
						</g>
						<g>
							<path style="fill:#F0F0F0;" d="M291.159,395.87c0.098,0.001,0.196-0.029,0.279-0.094c0.19-0.147,0.219-0.417,0.068-0.602
								c-1.237-1.509-4.842-3.526-8.099-3.211c-0.242,0.022-0.419,0.233-0.395,0.467c0.023,0.235,0.23,0.406,0.48,0.385
								c3.05-0.285,6.348,1.698,7.328,2.894C290.905,395.814,291.031,395.869,291.159,395.87z"/>
						</g>
						<g>
							<path style="fill:#F0F0F0;" d="M294.7,393.394c0.095,0.001,0.192-0.028,0.274-0.09c0.192-0.145,0.226-0.414,0.077-0.6
								c-1.7-2.138-5.579-3.576-8.846-3.262c-0.242,0.022-0.419,0.233-0.394,0.467c0.023,0.235,0.231,0.401,0.48,0.385
								c2.942-0.28,6.559,1.039,8.068,2.934C294.443,393.336,294.571,393.393,294.7,393.394z"/>
						</g>
					</g>
				</g>
			</g>
			<g>
				<g id="XMLID_2919_">
					<path id="XMLID_2922_" style="fill:#FFA8A7;" d="M330.691,349.989l18.931-2.195c1.041,12.863,0.429,27.314,1.339,39.389
						c0.171,2.273,1.888,17.608,1.496,22.358c-0.589,7.136-9.218,7.027-10.106,2.877c-0.889-4.149-1.749-22.164-1.968-24.009
						c-0.728-7.73-4.578-17.343-7.966-31.015C332.252,356.723,330.851,350.644,330.691,349.989z"/>
				</g>
				<g>
					<path style="fill:#263238;" d="M339.441,415.653c0.25,4.136,0.911,6.877,2.418,9.303c1.507,2.425,4.346,3.187,7.221,2.477
						c2.875-0.71,6.556-2.608,7.377-6.176c0.821-3.568,0.653-6.012-0.003-9.848L339.441,415.653z"/>
					<path id="XMLID_2916_" style="fill:#37474F;" d="M350.859,385.707c1.185,0.091,1.539,5.643,2.226,11.203
						c0.737,5.959,2.563,8.424,3.221,13.31c0.752,5.582,0.453,8.076-1.55,11.452c-2.003,3.376-9.103,6.686-12.606,1.852
						c-2.856-3.941-2.977-8.311-2.722-13.885c0.265-5.762,0.497-9.815,0.253-14.188c-0.234-4.18-0.533-8.231,0.496-8.696
						c0.08,0.614,0.158,1.393,0.242,1.996c0.065,0.463,0.185,2.726,0.849,2.747c0.061-0.534,0.049-1.031,0.012-1.575
						c-0.032-0.472,0.008-0.988,0.324-1.348c0.318-0.363,0.834-0.48,1.314-0.573c1.166-0.225,2.339-0.427,3.523-0.531
						c0.59-0.052,1.182-0.079,1.774-0.073c0.48,0.005,1.046,0.045,1.501,0.209c0.279,0.101,0.538,0.295,0.642,0.567
						c0.077,0.201,0.062,0.423,0.062,0.637c0,0.386,0.05,0.772,0.149,1.146c0.044,0.165,0.16,0.366,0.33,0.326
						c0.138-0.032,0.192-0.199,0.193-0.338c0.004-0.673-0.084-1.164-0.117-1.947c-0.015-0.362-0.076-0.856-0.081-1.219
						C350.887,386.422,350.884,386.064,350.859,385.707z"/>
					<path style="fill:#455A64;" d="M356.036,408.632c0.116,0.805,0.819,6.136-0.669,7.098c-1.611,1.04-2.499-3.151-2.499-3.151
						s-3.781-1.129-9.282,1.219c0.283,0.865-0.564,3.717-2.074,3.115c-1.5-0.599-2.097-6.714-2.104-6.793
						c-0.225,5.344-0.031,9.578,2.742,13.405c3.504,4.834,10.603,1.523,12.606-1.852c2.004-3.375,2.303-5.869,1.551-11.452
						C356.231,409.661,356.138,409.137,356.036,408.632z"/>
					<path style="fill:#263238;" d="M352.437,412.936c0.025,2.018,2.068,1.336,2.155-1.513c0.087-2.849-1.519-9.611-1.507-14.513
						c-0.687-5.56-1.041-11.112-2.226-11.203c0.005,0.068,0.003,0.137,0.006,0.205l0.158,2.824c0.035,0.41,0.07,0.774,0.068,1.209
						c0.033,4.116,0.634,12.07,1.001,15.833C352.458,409.542,352.412,410.918,352.437,412.936z"/>
					<path style="fill:#263238;" d="M344.224,413.742c-0.391-1.982-0.719-3.322-1.134-7.08c-0.412-3.731-1.446-11.548-2.258-15.613
						c-0.29-0.689-0.367-1.964-0.414-2.298c-0.079-0.563-0.152-1.274-0.226-1.866c-0.008-0.042-0.016-0.083-0.022-0.125
						c-0.742,0.349-0.787,2.582-0.666,5.376c0.15,1.615,0.414,3.612,0.789,6.029c1.02,4.801,0.831,11.778,1.502,14.553
						C342.466,415.493,344.614,415.724,344.224,413.742z"/>
					<g>
						<g>
							<path style="fill:#F0F0F0;" d="M343.47,413.961c0.055-0.005,0.109-0.021,0.16-0.046c0.042-0.022,4.341-2.166,9.126-0.922
								c0.236,0.06,0.475-0.077,0.537-0.304c0.063-0.229-0.078-0.463-0.312-0.524c-5.119-1.331-9.57,0.895-9.758,0.991
								c-0.214,0.109-0.298,0.368-0.184,0.577C343.122,413.892,343.297,413.978,343.47,413.961z"/>
						</g>
						<g>
							<path style="fill:#F0F0F0;" d="M342.477,409.581c0.049-0.005,0.098-0.018,0.146-0.039c0.048-0.022,4.881-2.232,10.218-1.028
								c0.236,0.049,0.471-0.091,0.527-0.322c0.054-0.23-0.094-0.461-0.33-0.514c-5.644-1.27-10.586,0.995-10.794,1.09
								c-0.219,0.103-0.311,0.358-0.207,0.572C342.118,409.507,342.298,409.598,342.477,409.581z"/>
						</g>
						<g>
							<path style="fill:#F0F0F0;" d="M352.55,404.353c0.166-0.016,0.315-0.124,0.372-0.288c0.077-0.225-0.046-0.468-0.275-0.544
								c-5.313-1.754-10.559,0.879-10.78,0.992c-0.215,0.109-0.298,0.368-0.184,0.578c0.113,0.209,0.382,0.285,0.593,0.18
								c0.05-0.025,5.146-2.577,10.089-0.938C352.426,404.353,352.488,404.359,352.55,404.353z"/>
						</g>
						<g>
							<path style="fill:#F0F0F0;" d="M352.242,400.429c0.163-0.016,0.31-0.121,0.369-0.281c0.082-0.224-0.037-0.469-0.265-0.548
								c-5.843-2.04-10.79,0.837-10.997,0.96c-0.207,0.123-0.273,0.386-0.147,0.588c0.126,0.202,0.402,0.267,0.604,0.144
								c0.046-0.028,4.805-2.783,10.243-0.886C352.114,400.429,352.18,400.436,352.242,400.429z"/>
						</g>
						<g>
							<path style="fill:#EBEBEB;" d="M351.879,396.022c0.16-0.016,0.306-0.118,0.367-0.276c0.085-0.222-0.03-0.468-0.257-0.551
								c-5.476-1.999-10.849,0.95-11.075,1.079c-0.211,0.117-0.282,0.379-0.161,0.584c0.12,0.206,0.388,0.279,0.599,0.157
								c0.053-0.029,5.244-2.876,10.328-1.019C351.746,396.021,351.813,396.028,351.879,396.022z"/>
						</g>
					</g>
				</g>
			</g>
			<path id="XMLID_3000_" style="fill:#37474F;" d="M336.728,220.399c3.79,8.455,7.883,14.368,8.383,30.297
				c1.063,33.861,0.699,58.309,0.699,58.309c0.229,2.986,1.793,7.366,3.879,22.747c1.749,12.889,1.388,32.729,1.388,32.729
				s-8.849,4.54-17.042,1.291c-3.27-11.005-9.104-39.769-12.674-54.507c-3.241-13.381-6.448-32.977-6.448-32.977l-5.154,33.155
				c0,0,0.988,13.283,0.538,21.109c-0.522,9.103-4.855,34.633-4.855,34.633s-9.072,3.876-16.116-1.216
				c0,0-3.504-45.803-3.589-56.766c-0.166-21.502-1.335-66.813,2.483-89.316L336.728,220.399z"/>
			<path style="fill:#455A64;" d="M351.508,361.268c-3.339,2.042-13.923,3.386-18.467,1.73l1.289,5.206c0,0,2.059,1.416,8.32,1.07
				c6.26-0.346,8.695-2.88,8.695-2.88L351.508,361.268z"/>
			<path style="fill:#455A64;" d="M306.393,362.729c-3.581,1.604-13.426,1.615-17.713-0.6l0.588,5.325c0,0,1.467,1.995,7.736,2.104
				c6.296,0.11,8.548-1.768,8.548-1.768L306.393,362.729z"/>
			<path id="XMLID_2999_" style="fill:#263238;" d="M314.914,278.288l-3.805-23.917c0,0-14.641-1.695-19.968-6.682
				c0,0,6.72,9.236,16.655,10.742l4.19,19.826l-2.181,32.902L314.914,278.288z"/>
		</g>
		<g id="Top_7_">
			<g>
				<g>
					<path style="fill:#FFA8A7;" d="M333.481,214.221l3.655-22.441c0,0-6.805-9.778-5.262-25.214c-4.3-1.77-9.42-2.17-9.245-5.189
						l-16.978,2.757c-3.798,4.028-11.668,7.309-15.584,13.961c-4.772,8.106-4.879,15.789-0.056,21.395
						c0.246,5.593-0.818,23.783-0.818,23.783c17.109,11.569,46.764,2.144,46.764,2.144
						C334.473,221.215,333.148,218.137,333.481,214.221z"/>
					<g id="Head_2_">
						<g id="XMLID_314_">
							<path style="fill:#263238;" d="M322.394,156.674c0.148-2.732,4.653-5.458,8.507-9.624c5.361-5.794,8.289-16.088,0.236-23.637
								c-1.812-12.025-15.86-14.906-27.306-12.098c-6.869,1.685-13.207,6.306-15.612,13.011c-1.735,4.836-1.708,10.867,1.624,15.378
								c-0.305-1.511-0.486-3.779,0.056-5.113c0.271,0.785,0.549,1.582,1.032,2.257c0.483,0.676,1.208,1.225,2.036,1.299
								c0.841,0.075,1.343-0.398,2.082-0.633c0.706-0.224,0.743-0.133,1.363,0.311c0.749,0.536,1.491,1.081,2.236,1.622
								c1.75,1.27,3.501,2.54,5.251,3.81c3.692,2.678,7.384,5.357,11.076,8.035C315.397,151.598,322.387,156.809,322.394,156.674z"
								/>
							<path style="fill:#263238;" d="M344.768,144.349c-1.123,0.658-2.29,0.286-3.585,0.774c-1.582,0.595-2.316,2.462-3.767,3.329
								c-1.258,0.752-2.841,0.634-4.284,0.382c-0.802-0.14-1.639-0.335-2.244-0.88c-0.357-0.322-0.608-0.744-0.835-1.167
								c-0.889-1.656-1.346-3.306-1.721-5.114c-0.399-1.923-1.053-3.496-0.865-5.529c0.091-0.986,0.307-1.961,0.346-2.95
								c0.039-0.99-0.119-2.029-0.7-2.831c-0.707-0.976-1.903-1.439-2.913-2.097c-0.874-0.569-1.651-1.336-2.056-2.297
								c-0.526-1.247-0.372-2.677-0.041-3.989c0.619-2.45,1.867-4.785,3.786-6.429c1.919-1.644,4.545-2.532,7.032-2.086
								c1.597,0.286,3.094,1.161,4.123,2.417c0.489,0.597,0.974,1.355,1.129,2.123c0.168,0.827,0.064,1.649,0.457,2.453
								c0.486,0.993,1.526,1.593,2.563,1.978s2.14,0.622,3.096,1.178c1.117,0.649,1.954,1.687,2.675,2.76
								c0.56,0.832,1.074,1.717,1.305,2.694c0.231,0.976,0.148,2.064-0.415,2.894c-0.555,0.82-1.501,1.3-2.102,2.088
								c-0.497,0.652-0.727,1.503-0.626,2.317c0.179,1.438,1.31,2.611,1.545,4.041c0.221,1.345-0.429,2.705-1.421,3.591
								C345.09,144.138,344.93,144.254,344.768,144.349z"/>
							<g id="XMLID_823_">
								<path id="XMLID_824_" style="fill:#FFA8A7;" d="M325.265,149.183c1.118-0.059,2.206-0.525,3.118-1.158
									c2.499-1.733,3.147-5.513,1.905-8.193c-0.841-1.818-3.795-2.726-5.303-1.174c-0.771,0.794-1.176,3.427-2.721,2.919
									c-1.062-0.35-0.923-1.851-1.011-2.716c-0.465-4.576-2.936-8.83-6.229-11.967c-1.498-1.427-3.21-2.674-5.104-3.522
									c-1.417-0.634-3.591-1.33-5.14-1.083c-1.094,0.175-2.148,0.59-3.067,1.207c-0.569-0.668-1.353-1.143-2.198-1.37
									c-2.61-0.701-4.888,1.721-5.817,3.913c-1.647,3.887-1.636,8.542-1.636,12.681c-0.001,7.914,1.482,13.026,4.727,16.426
									c1.505,1.576,4.988,2.813,8.778,2.591l0.085,4.879c0,0-5.271,5.444-2.904,11.431c0,0,5.932-0.463,10.65-2.538
									c7.628-3.356,9.163-6.7,9.163-6.7l0.346-17.123c0.01,0.031,0.023,0.061,0.036,0.091
									C323.336,148.712,324.264,149.236,325.265,149.183z"/>
							</g>
							<path style="fill:#263238;" d="M312.136,118.494c4.047,0.279,7.136,2.326,9.65,5.566c2.744,3.536,4.302,8.298,2.844,12.644
								c-0.248,0.74-0.572,1.494-1.18,1.983c-0.805,0.648-1.888,0.497-2.583-0.216c-1.021-1.048-1.73-2.366-2.244-3.735
								c-0.001,1.809,0.422,3.618,1.226,5.239c-1.825-0.357-3.506-1.409-4.624-2.896c-2.059-2.737-2.065-6.509-3.628-9.556
								c-2.074-4.045-4.729-6.61-9.885-4.026C301.713,123.496,301.713,117.775,312.136,118.494z"/>
							<g>
								<g id="XMLID_821_">
									<path id="XMLID_822_" style="fill:#263238;" d="M307.434,136.159c-0.13,0.906,0.507,1.767,1.421,1.923
										c0.914,0.156,1.76-0.452,1.889-1.358c0.129-0.906-0.507-1.766-1.421-1.922
										C308.408,134.645,307.563,135.253,307.434,136.159z"/>
								</g>
								<g id="XMLID_815_">
									<path id="XMLID_816_" style="fill:#263238;" d="M294.36,131.866l3.773-1.293c-0.32-1.064-1.425-1.637-2.467-1.279
										C294.625,129.651,294.04,130.803,294.36,131.866z"/>
								</g>
								<g id="XMLID_813_">
									<path id="XMLID_814_" style="fill:#263238;" d="M308.015,130.719l3.484,1.941c0.577-0.949,0.264-2.154-0.698-2.69
										C309.839,129.434,308.591,129.77,308.015,130.719z"/>
								</g>
								<g id="XMLID_810_">
									<path id="XMLID_811_" style="fill:#B16668;" d="M308.671,145.926l-6.141,2.566c0.65,1.737,2.731,2.534,4.647,1.649
										C308.845,149.371,309.32,147.661,308.671,145.926z"/>
									<path style="fill:#F28F8F;" d="M305.372,150.483c0.053-1.776,1.426-3.262,3.236-3.391c0.11-0.008,0.216,0.007,0.324,0.01
										c0.101,1.292-0.469,2.445-1.755,3.039C306.573,150.419,305.958,150.514,305.372,150.483z"/>
								</g>
								<g id="XMLID_808_">
									<path id="XMLID_809_" style="fill:#263238;" d="M295.19,135.877c-0.125,0.876,0.49,1.708,1.373,1.859
										c0.884,0.15,1.701-0.438,1.827-1.314c0.126-0.877-0.49-1.709-1.373-1.859C296.133,134.412,295.315,135.001,295.19,135.877z
										"/>
								</g>
								<g id="XMLID_806_">
									<polygon id="XMLID_807_" style="fill:#F28F8F;" points="303.153,134.54 302.265,144.702 297.262,143.459 									"/>
								</g>
								<g id="XMLID_804_">
									<path id="XMLID_805_" style="fill:#F28F8F;" d="M305.566,157.737c4.004-0.408,12.056-1.886,14.736-6.976
										c0,0-1.135,4.249-3.767,6.057c-2.633,1.807-10.938,3.255-10.938,3.255L305.566,157.737z"/>
								</g>
							</g>
						</g>
					</g>
					<g>
						<path style="fill:#37474F;" d="M294.258,165.521c-2.973,0.741-1.125,5.467-6.897,13.859l17.868-15.19l0.421-1.573
							C305.651,162.616,298.396,164.491,294.258,165.521z"/>
						<path style="fill:#8E6CEF;" d="M292.608,174.047c7.6-6.311,12.582-9.755,12.582-9.755c-0.991,4.009-0.05,6.366,1.939,6.992
							c1.988,0.626,8.983-0.822,13.056-4.583l21.938,15.766c-1.313,3.864-3.932,10.604-4.647,14.727
							c-0.715,4.122-2.212,12.164-1.742,16.314c0.47,4.15,6.493,16.201,7.835,23.742c0,0-11.946,11.062-35.555,9.852
							c-18.835-0.965-22.057-8.884-22.057-8.884s0.795-13.026,1.09-18.23c0.302-5.319,1.249-15.127,1.249-15.127
							s-7.166-6.627-5.572-15.19C284.242,181.511,289.478,176.646,292.608,174.047z"/>
						<path style="fill:#263238;" d="M322.658,159.872c-0.324,2.591-2.974,6.066-5.317,7.669c-4.972,3.404-8.787,4.04-10.993,2.703
							c-2.173-1.317-0.976-5.595-0.697-7.628c-0.564,0.146-1.194,0.308-1.194,0.308c-0.963,2.115-2.56,8.219,0.876,9.745
							c4.751,2.111,13.314-1.614,16.622-5.81c3.308-4.196,3.449-6.477,3.449-6.477s-0.876,0.06-1.44-0.056
							C323.402,160.21,322.658,159.872,322.658,159.872z"/>
					</g>
				</g>
				<g>
					<path style="fill:#FFA8A7;" d="M367.9,103.11c-0.002,3.708-7.239,27.577-7.239,27.577s14.171,8.884,14.271,8.513
						c0.1-0.371,4.962-31.557,6.215-36.449L367.9,103.11z"/>
					<path style="fill:#37474F;" d="M325.607,163.858c4.733-6.858,8.095-8.684,12.107-10.356c4.012-1.672,18.967-11.86,18.967-11.86
						l7.027-23.887l13.7,7.05c0,0-2.658,23.129-4.487,26.302c-1.828,3.173-12.172,13.25-20.051,21.563
						c-5.447,5.747-10.54,11.553-13.122,16.554c-0.693,1.343-2.313,4.301-4.273,3.805c-3.017-0.764-6.194-8.865-7.645-13.548
						C325.438,171.756,325.53,166.884,325.607,163.858z"/>
					<path style="fill:#37474F;" d="M329.325,159.113c-4.358,2.359-6.668,0.759-6.668,0.759s0.306,5.903-3.757,8.48
						c0,0,8.603,19.152,15.289,23.936C340.876,197.072,329.325,159.113,329.325,159.113z"/>
				</g>
				<g>
					<g>
						<path style="fill:#FFA8A7;" d="M367.9,103.11c-0.074-6.76,1.581-10.311,4.695-13.352c0.473-0.462,0.717-1.416,1.027-1.842
							c0.288-3.863-5.005-10.475-1.217-11.649c4.466-1.385,5.889,0.054,8.554,1.849c2.665,1.795,9.824,6.319,6.64,12.272
							c-3.184,5.953-4.854,6.895-6.709,13.208C378.61,111.352,367.9,103.11,367.9,103.11z"/>
					</g>
					<g id="XMLID_519_">
						<path style="fill:#263238;" d="M375.316,118.677c0.019-0.003,0.037-0.008,0.055-0.014c0.195-0.065,0.301-0.275,0.236-0.468
							c-0.013-0.04-1.334-4.034-4.394-14.157c-2.751-9.095-1.357-10.668,0.257-12.489c0.136-0.153,0.122-0.387-0.031-0.523
							c-0.155-0.137-0.388-0.119-0.523,0.032c-2.042,2.305-3.09,4.343-0.412,13.196c3.065,10.134,4.387,14.135,4.4,14.174
							C374.962,118.604,375.139,118.706,375.316,118.677z"/>
					</g>
					<g id="XMLID_484_">
						<polygon id="XMLID_515_" style="fill:#8E6CEF;" points="400.356,186.219 427.837,150.238 400.645,92.157 375.139,125.648 
													"/>
						<polygon id="XMLID_522_" style="opacity:0.15;fill:#FFFFFF;" points="400.356,186.219 427.837,150.238 400.645,92.157 
							375.139,125.648 						"/>
						<polygon id="XMLID_292_" style="opacity:0.2;fill:#FFFFFF;" points="400.356,186.219 427.837,150.238 400.645,92.157 
							375.139,125.648 						"/>
						<polygon style="fill:#8E6CEF;" points="375.139,125.648 371.711,121.241 364.843,124.124 377.779,183.564 400.356,186.219 
													"/>
						<polygon style="opacity:0.55;fill:#FFFFFF;" points="375.139,125.648 371.711,121.241 364.843,124.124 377.779,183.564 
							400.356,186.219 						"/>
						<polygon style="opacity:0.2;fill:#8E6CEF;" points="377.779,183.564 387.556,180.234 374.303,133.81 390.532,180.335 
							400.356,186.219 						"/>
						<polygon style="opacity:0.05;" points="377.779,183.564 387.556,180.234 374.303,133.81 390.532,180.335 400.356,186.219 
													"/>
						<polygon id="XMLID_513_" style="fill:#8E6CEF;" points="400.645,92.157 393.634,94.167 391.35,90.978 364.843,124.124 
							371.711,121.241 375.139,125.648 						"/>
						<polygon id="XMLID_533_" style="opacity:0.1;fill:#FFFFFF;" points="400.645,92.157 393.634,94.167 391.35,90.978 
							364.843,124.124 371.711,121.241 375.139,125.648 						"/>
						<polygon id="XMLID_312_" style="opacity:0.05;" points="400.645,92.157 393.634,94.167 391.35,90.978 364.843,124.124 
							371.711,121.241 375.139,125.648 						"/>
						<polygon id="XMLID_494_" style="opacity:0.15;" points="393.634,94.167 395.589,98.824 400.645,92.157 						"/>
					</g>
					<g id="XMLID_41347_">
						<path style="fill:#263238;" d="M383.835,123.981c0.033-0.006,0.066-0.016,0.099-0.031c0.185-0.088,0.263-0.31,0.174-0.494
							c-0.05-0.106-5.085-10.624-8.032-16.98c-2.848-6.138-6.373-13.741-3.734-16.183c0.15-0.14,0.159-0.375,0.02-0.524
							c-0.14-0.15-0.373-0.157-0.525-0.02c-3.034,2.81,0.465,10.354,3.552,17.011c2.963,6.39,8,16.91,8.05,17.017
							C383.511,123.928,383.676,124.008,383.835,123.981z"/>
					</g>
					<g id="XMLID_41353_">
						<path style="fill:#263238;" d="M387.246,124.623c0.04-0.007,0.08-0.021,0.118-0.04c0.179-0.099,0.244-0.324,0.146-0.505
							c-0.056-0.101-5.573-10.13-9.557-17.99c-0.394-0.778-0.811-1.581-1.235-2.396c-2.917-5.612-6.223-11.973-3.938-14.088
							c0.15-0.14,0.159-0.375,0.02-0.525c-0.14-0.15-0.372-0.155-0.525-0.02c-2.698,2.5,0.597,8.842,3.785,14.974
							c0.423,0.812,0.839,1.613,1.233,2.39c3.988,7.869,9.511,17.911,9.566,18.012C386.938,124.578,387.095,124.648,387.246,124.623
							z"/>
					</g>
					<g id="XMLID_310_">
						<polygon id="XMLID_319_" style="fill:#37474F;" points="431.246,177.643 458.145,137.518 410.776,92.45 390.532,120.115 
													"/>
						<polygon id="XMLID_315_" points="379.486,123.824 403.424,93.267 406.354,94.305 410.776,92.45 390.532,120.115 
							387.238,120.571 						"/>
						<polygon style="fill:#455A64;" points="390.532,120.115 387.238,120.571 379.486,123.824 408.613,187.142 431.246,177.643 
													"/>
						<polygon style="fill:#37474F;" points="431.246,177.643 416.772,175.234 395.131,138.709 414.379,176.848 408.613,187.142 
													"/>
					</g>
					<g id="XMLID_41348_">
						<path style="fill:#263238;" d="M399.211,116.864c0.084-0.014,0.164-0.057,0.223-0.127c0.131-0.156,0.112-0.39-0.045-0.523
							c-0.178-0.149-17.816-15.063-21.336-18.409c-2.983-2.834-6.256-6.695-4.905-8.991c0.104-0.176,0.046-0.403-0.132-0.507
							c-0.175-0.104-0.403-0.047-0.507,0.132c-1.284,2.179,0.409,5.511,5.032,9.903c3.535,3.361,21.191,18.288,21.369,18.439
							C398.997,116.855,399.108,116.881,399.211,116.864z"/>
					</g>
					<g id="XMLID_41364_">
						<path style="fill:#263238;" d="M400.216,114.464c0.089-0.015,0.172-0.061,0.231-0.138c0.126-0.16,0.097-0.394-0.065-0.519
							c-0.189-0.148-18.984-14.786-22.5-18.125c-3.499-3.327-5.536-5.497-4.311-7.58c0.104-0.176,0.046-0.404-0.132-0.507
							c-0.176-0.104-0.404-0.047-0.507,0.132c-1.613,2.74,1.192,5.405,4.439,8.493c3.542,3.364,21.781,17.57,22.556,18.172
							C400.012,114.456,400.117,114.48,400.216,114.464z"/>
					</g>
					<g id="XMLID_294_">
						<polygon id="XMLID_308_" style="fill:#8E6CEF;" points="394.05,116.988 437.609,173.522 457.212,159.051 399.218,110.993 
													"/>
						<polygon id="XMLID_288_" style="opacity:0.15;" points="394.05,116.988 437.609,173.522 457.212,159.051 399.218,110.993 
													"/>
						<polygon style="opacity:0.15;" points="437.609,173.522 441.96,162.616 414.379,132.66 444.273,160.878 457.212,159.051 
													"/>
						<polygon id="XMLID_297_" style="fill:#8E6CEF;" points="457.212,159.051 467.066,117.431 417.25,84.255 399.218,110.993 
													"/>
						<path id="XMLID_41367_" d="M407.197,108.798c0.532,0.285,1.269-0.099,1.25-0.702c-0.019-0.603-0.465-1.323-0.996-1.608
							c-0.531-0.285-1.268,0.099-1.25,0.702C406.22,107.793,406.666,108.512,407.197,108.798z"/>
						<path id="XMLID_41380_" d="M415.804,97.188c0.531,0.285,1.268-0.099,1.25-0.702c-0.019-0.603-0.465-1.323-0.996-1.608
							c-0.531-0.285-1.269,0.099-1.25,0.702C414.827,96.183,415.273,96.903,415.804,97.188z"/>
					</g>
					<g id="XMLID_41355_">
						<path style="fill:#263238;" d="M407.214,108.028c0.117-0.02,0.223-0.096,0.277-0.214c0.084-0.186,0.001-0.405-0.186-0.49
							c-0.205-0.094-20.648-9.312-25.331-11.282c-3.768-1.585-7.883-4.183-8.582-6.416c-0.176-0.561-0.119-1.056,0.173-1.515
							c0.109-0.172,0.058-0.402-0.115-0.512c-0.172-0.106-0.4-0.059-0.512,0.115c-0.409,0.645-0.495,1.363-0.253,2.134
							c0.823,2.626,5.362,5.345,9.001,6.876c4.675,1.967,25.109,11.183,25.315,11.276
							C407.069,108.032,407.144,108.04,407.214,108.028z"/>
					</g>
					<g id="XMLID_293_">
						<g id="XMLID_41361_">
							<path style="fill:#263238;" d="M408.212,103.72c-0.065,0.086-0.151,0.151-0.248,0.162c-0.086,0.011-0.184,0-0.27-0.054
								l-20.133-13.375c0.011-0.021,0.022-0.043,0.032-0.065c0.108-0.205,0.205-0.41,0.291-0.615l20.219,13.44
								C408.277,103.32,408.32,103.547,408.212,103.72z"/>
						</g>
						<g id="XMLID_41365_">
							<path style="fill:#263238;" d="M409.129,101.798c-0.054,0.097-0.151,0.162-0.259,0.173c-0.076,0.011-0.162,0-0.248-0.043
								l-20.726-12.177c0.108-0.237,0.184-0.486,0.248-0.713L409,101.291C409.183,101.388,409.237,101.615,409.129,101.798z"/>
						</g>
					</g>
					<g id="XMLID_41358_">
						<g id="XMLID_41349_">
							<path style="fill:#263238;" d="M394.308,107.239c-0.043,0.032-0.086,0.043-0.14,0.054c-0.14,0.022-0.292-0.032-0.367-0.162
								l-8.442-12.932c0.151-0.238,0.292-0.475,0.432-0.713l8.625,13.245C394.535,106.904,394.481,107.131,394.308,107.239z"/>
						</g>
						<g id="XMLID_41354_">
							<path style="fill:#263238;" d="M395.787,105.609c-0.043,0.032-0.097,0.065-0.162,0.065c-0.13,0.021-0.27-0.022-0.356-0.14
								l-9.219-12.468c0.14-0.227,0.27-0.453,0.41-0.68l9.402,12.706C395.992,105.253,395.949,105.49,395.787,105.609z"/>
						</g>
					</g>
					<g id="XMLID_41360_">
						<path style="fill:#263238;" d="M416.027,95.98c-0.043,0.14-0.162,0.238-0.302,0.259c-0.043,0.011-0.108,0.011-0.162-0.011
							l-27.225-8.053c0.032-0.259,0.054-0.518,0.054-0.766l27.376,8.107C415.973,95.57,416.081,95.775,416.027,95.98z"/>
					</g>
				</g>
			</g>
		</g>
	</g>
</g>
</svg>
